<svg id="Layer_1" data-name="Layer 1" xmlns="http://www.w3.org/2000/svg" viewBox="0 0 1107.14 1080"><path d="M433.24,370c-2.49-2.79-2.49-5.72-1.37-9.26a20.76,20.76,0,0,0,.67-9c-1.14-7.88-3-15.66-4.11-23.54a11.45,11.45,0,0,1,1.39-6.65c1.51-2.75,3.88-3.74,6.24-.51,9.42,12.89,19.07,25.63,28.17,38.75,5.2,7.5,9.54,15.61,14.16,23.51a21.43,21.43,0,0,1,1.42,4.43l-1.23.67c-2.12-2.89-4.31-5.73-6.35-8.67-9.3-13.41-18.52-26.87-27.86-40.25a30.61,30.61,0,0,0-5.05-5.5c-.85-.74-2.63-1.33-3.47-.92a3.94,3.94,0,0,0-1.58,3.25c.28,3,1.05,6,1.79,9.82l4-3.39c-.07.72.06,1.38-.18,1.57-3.68,3-2.64,6.41-.94,9.77,5.5,10.83,10.8,21.78,16.75,32.36,7.42,13.19,14.76,26.5,23.33,38.93s20.67,21.41,34.48,29.21c-1-5.71-2.37-10.57-2.56-15.47-.11-3,1.56-6.06,2.43-9.1,2.35,2,5.4,3.58,6.92,6.09,3.86,6.4,7.57,13.05,5.25,21.15-.23.82.84,2.43,1.74,3.09a53.51,53.51,0,0,1,17.11,21.17c10,21.77,20.08,43.52,29.33,65.62,13.74,32.88,31.73,63.39,50.72,93.37,13.65,21.55,27.48,43.18,46.31,60.59,11.3,10.44,24.32,19.14,37.16,27.74,8.87,5.94,22.35,4,31.41-4.66,23.38-22.41,39.79-49,45.55-81.37.7-4,0-9.16-2.13-12.44-14.34-22.14-35.94-34.74-60-44.22,13.74,17.2,18,36.3,13,57.49-.54-6.09-.76-12.23-1.66-18.27-2.77-18.61-12.63-33.28-27-44.69-33.41-26.47-57.68-60.49-82-94.92-18.56-26.33-25-55.78-29.61-86.39-1-6.91-2.47-13.76-3.74-20.63-3.26-17.52-11.78-31.83-25.05-43.8-9.36-8.46-17.74-18-26.57-27.07a28.73,28.73,0,0,0-3.21-3.13c-3.75-2.78-7.53-1.25-7.87,3.35-.76,10.32,1.93,19.52,9.83,26.65,4.7,4.23,9.71,8.13,14.39,12.38a20.32,20.32,0,0,1,7.1,14.39c-9.8-6-18.21-12.1-25.32-19.81-4.63-5-9-10.26-13.36-15.53-14.35-17.44-32.33-30.66-50.57-43.54-2.84-2-6.67-2.9-10.18-3.48-1.27-.21-3.55,1.75-4.22,3.24-.44,1,.79,3.3,1.91,4.33,6.07,5.56,13.1,10.26,18.41,16.45,13.11,15.29,25.51,31.18,38.08,46.92,1.91,2.4,3.19,5.29,4.77,8l-1.37,1.16c-1.52-1.76-3.13-3.45-4.56-5.28-5.52-7.09-11.23-14.05-16.42-21.38-10.22-14.44-23.65-25.71-36.26-37.82-2-1.88-3.07-4.62-4.94-6.62-1.3-1.41-3.25-3.23-4.85-3.17-8.84.32-15.57-4.14-22.22-8.94-11.37-8.23-24.53-10.41-38.07-12.11-10.26-1.28-17.49,1.59-24.88,9.17-11,11.28-23.79,20.82-35.74,31.2-2.63,2.28-4.75,5.16-7.38,7.45-4,3.46-3.6,7-.07,10.11,8.24,7.21,16.16,15,25.29,20.93,11.59,7.52,19.92,16.82,23.79,30.13,2.84,9.73-1.6,20.54-11.37,26.53a214.16,214.16,0,0,1-21.33-41.64c-.83-2.22-2.85-4-3.79-6.18a39,39,0,0,1-3.2-10c-.5-3.94-1.57-5.76-6-5.73-18,.13-28.37-8.66-31.69-26.49-6.43,8.92-4.81,17.53.84,26.44-14.85-5.81-30.72-25.24-23.07-43.38,1.94-4.58,5.44-8.7,8.91-12.38,2.29-2.43,2.7-4.33,2-7.41-3.23-13.59-6.85-27.14-9.12-40.9-7.6-46.11,8.54-83.45,43.59-113.16,28.35-24,61.79-36.22,98.34-40.36a194.31,194.31,0,0,1,70.88,4.54c23,5.92,40.38,19.71,54.09,38.05,9.81,13.13,17.63,27.75,26.36,41.69.86,1.39,1.51,3.11,2.74,4,15.65,11.76,26.28,27.58,34,45,8.15,18.54,14.44,37.9,21.69,56.85.76,2,2.16,4.28,3.91,5.24C650.65,285,672,295.56,695,301.15c9.36,2.28,19.56,2.6,29.15,5.07,28.37,7.3,56.91,14,85,22.4,42.23,12.6,73.47,40,96,77.1,15.79,26,30.75,52.62,44.39,79.81,33.93,67.68,61.92,137.88,84.86,210,10.07,31.68,17.51,64.2,26.55,96.22,3.35,11.86-1.05,19.68-10.4,26.34a184.83,184.83,0,0,1-52.28,25.61c-31.43,9.88-62.78,20.27-94.73,28.19-39.5,9.79-80,11.89-120.62,9.36-11-.68-21.88-1.62-33-1.79,6.72,1.21,13.41,2.55,20.15,3.62a347.33,347.33,0,0,0,152.82-9.73c30.68-8.89,60.94-19.25,91.24-29.38,7.69-2.56,15-6.41,22.18-10.27,7-3.75,13.55-8.26,21.31-13.06,1.25,11.43,3.11,22.57,3.59,33.76,1.69,39.45-1.08,78.59-9.82,117.19-.44,1.94-1.44,4.66-2.93,5.32-9.66,4.31-19.54,8.16-30.59,12.66a385,385,0,0,0-2.33-113.77c.18,3.09.33,6.18.54,9.27s.72,6.32.67,9.47c-.43,30.3-1,60.6-1.41,90.91,0,3.38-1.64,4.81-4.86,5.71-31.69,8.81-63.89,15.17-96.61,17.93-32.5,2.74-65.12,4.77-97.73,5.43-28.29.58-56.64-1-84.29-8.28-15.39-4-15.77-4.24-14.07-19.82,2.31-21.18,5.25-42.28,7.64-63.45.65-5.75.38-11.61.41-17.43.06-9.76,0-19.53,0-29.3h1.34c-.21-.24-.38-.63-.65-.71-12-3.78-15-13-14.91-24.21.09-9.95,1.72-19.49,5.88-28.63a26,26,0,0,0,2-9.61,190.66,190.66,0,0,0-6.29-58.38c-.5-1.8-1.85-4.21-3.38-4.76-20.3-7.27-35.56-21.27-49.65-36.82-17.69-19.54-30.49-42.38-43.46-65.1a6,6,0,0,0-1.71-2c.8,11.77-2,22.78-6.61,33.27-7.51,17-16.4,33.16-31.16,45.22-16,13-34.53,14.31-51.83,3s-29-27.22-38.79-44.94c-17.43-31.64-25.34-66.07-29-101.57-2.54-24.35-3.87-48.82-6.12-73.2-.68-7.35-2.61-14.59-4-21.88h-1.69c-.6,2.57-1.14,5.16-1.81,7.72a23,23,0,0,1-1.88,5.63c-.66,1.15-2.41,2.67-3.3,2.46-1.29-.31-3.1-2-3.19-3.16-.51-6.27-1.33-12.67-.57-18.84,1.51-12.37,1.75-12-9.43-17-7.66-3.44-14.8-8-22.17-12.11l.49-1.28a23.16,23.16,0,0,1-4.16,2.33c-3.16,1-6.09-1.85-5.15-5.73.73-3.05-.56-4.43-2.32-6.35Q379.88,426,367.79,412c-.87-1-1.63-3-1.21-4.06a108,108,0,0,1,9-18.39c.6,4,1.14,8.1,1.82,12.13,1.34,8,5.8,10.57,13.19,7.52,4-1.65,7.64-4.16,11.68-5.62,3-1.09,6.41-1.11,10.47-1.74-3.86,8.69,1.25,16.28,12.45,20.18-2.07-6.14,1.13-8.57,6-11.13a13.6,13.6,0,0,0,7.41-13.71c-.58-7.14-1-14.29-1.34-21.45-.15-3-1.07-5.16-4.23-5.84Zm338-17.27a142.66,142.66,0,0,0-28.15,30.17c-16.83,23.83-26.16,50.78-32.57,78.88-5.1,22.35-7.13,45.45-17,66.59a13.38,13.38,0,0,0-.62,3.4c-.63,3.68-1,7.43-1.95,11a39.38,39.38,0,0,1-3.28,8.35c-1.64,3.12-.22,4.83,1.67,7.29,4.84,6.31,12,7.11,18.75,9.18,45.66,13.94,88.1,34,124.49,66.32,3-6.91,6-13.74,9-20.56,2.32-5.3,5.56-10.38,6.79-15.92,2.76-12.5,4.86-25.17,6.63-37.85a448,448,0,0,0,3.82-91.21c-.53-8.17-.94-16.34-1.4-24.52l1.94-.27a484,484,0,0,1,16.85,95.61c14.53-16.68,25-34.5,28.84-55.84a15.56,15.56,0,0,1,.15,6.53c-3.38,14.23-6.12,28.68-10.6,42.57-4.39,13.57-10.55,26.57-16.05,39.78-1.45,3.51-.85,6.09,1.75,9,17.19,19,36.75,35.27,56.7,51.17,2.54,2,5,4.09,7.57,6.14L944,639.7l-66.46-17.93c24.5,47.58,93.83,95.41,141.81,97.9-37.06-20.86-74.4-39.85-103.69-70.95l63.26,7.35C966.77,611,955.05,567.3,943.27,523.65a57.8,57.8,0,0,0-2.57-6.37l-22.59,28.09c1.68-7.42,4.4-14.14,7-20.92,8-20.89,8.23-41.52-1.73-62-4.23-8.67-8.09-17.53-11.73-26.47-8.5-20.93-18.37-40.9-34.39-57.41-10.89-11.23-20.48-23.86-34.91-31-9.69-4.78-19.36-9.79-29.48-13.47-34.05-12.36-69.55-19.3-104.82-27-7.49-1.64-7.74-1.47-10.69,5.7-5.32,12.94-10.35,26-15.84,38.84-10.11,23.66-21.74,46.47-38.85,66-6.34,7.25-13.39,13.44-25.15,12.63,10.25,7.1,18.24,2.33,27.54-3.24l7.76,11.25c5.53-6.56,10.83-11.38,14.31-17.27,9.23-15.59,17.89-31.53,26.36-47.55,8.71-16.47,16.86-33.24,25.43-49.79,1.73-3.34,4.27-6.27,6.43-9.39l1.27.8c-1.43,2.74-2.89,5.46-4.3,8.21-6.25,12.13-12.79,24.12-18.69,36.43-13.5,28.19-25.8,57.07-48.28,80.51l34.75,37.29c1-3.46,1.73-5.78,2.32-8.14,8.79-35,23.24-67.25,46.57-95.17C747.66,363.86,759.51,358.48,771.23,352.73ZM276.35,211.79c1.68,11.84,3.06,23.72,5.13,35.49,2,11.35,2.32,11.39,13.4,9.62,55.43-8.83,109.32-23.28,161.39-44.36,25.35-10.27,50-21.92,72.77-37.2,2.31-1.54,4.2-2.67,2.67-6.27a203.17,203.17,0,0,0-31.1-50.37c-2.05-2.47-3.75-2.76-6.69-1.25q-18.44,9.45-37.13,18.35c-52.92,25.17-107.52,45.53-165,57.64C277.24,196.5,277.25,196.55,276.35,211.79ZM461.22,467.7c-3.82,5.19-6.59,8.71-9.06,12.44a5.47,5.47,0,0,0-.69,4c5.34,18.09,6.06,36.75,6.94,55.38,1.62,34.37,5.62,68.33,16.16,101.29,8,25,19.14,48.27,36.88,67.95,8.58,9.51,18.27,17.58,31,21,6.1,1.62,11.52-.22,14.5-5.06a30.09,30.09,0,0,0,3.69-9.19c6.53-30,2.89-58.38-11.87-85.57-12.45-22.94-24.48-46.15-35.67-69.73-14.62-30.77-28.23-62-42.3-93-.33-.72-1.1-1.23-2.54-2.79v24.83C466,482.17,463.78,475.5,461.22,467.7ZM278.47,195.12c10.26-2.55,19.5-4.6,28.61-7.16a880.5,880.5,0,0,0,127.46-46.5C455,132.15,475,122,495.11,111.92a57.18,57.18,0,0,0,13-9.16c3.85-3.54,3.34-5.59-1.37-7.83a111.48,111.48,0,0,0-14.36-5.71c-29.27-9.24-59.07-9.58-88.92-4-37.78,7.12-71.13,23-97.17,52.15A113.07,113.07,0,0,0,278.47,195.12Zm299.24,89.63c1.76,4.61,3.66,8.47,4.71,12.55,2.35,9.11,1.26,18.15-1.24,27.12-.46,1.67-.6,4.14.3,5.39,10.89,15.13,21.86,30.2,33.08,45.08,8.84,11.71,19.43,21.4,34.08,26.7,20.68-28.69,33.18-61.38,46.05-94.41-2.21-.86-3.89-1.49-5.55-2.17-16.94-6.9-33.93-13.65-50.77-20.79-6.25-2.64-12-5.77-19.32-5.23-4,.29-8.26-2.12-12.81-3.43,4.38,9.21,12,13.72,20.9,16.85C609.51,296.86,592.84,296.69,577.71,284.75ZM284.55,260.31c1.05,4.08,2.18,8.06,3.08,12.1.63,2.9,2,4.2,5.14,3.87,11.91-1.27,24-1.64,35.72-3.72A651.83,651.83,0,0,0,495.88,219c16.44-7.83,32.06-17.68,47.13-28,8.06-5.5,14.42-13.65,21-21.13,3.32-3.78,2.77-5.34,1.15-7.56-7.61,8.29-15.38,16.77-23.54,25.68l-5.87-10.18,10.65-11.25C467.19,220.43,378.41,246.54,284.55,260.31Zm255.58-13.85c-6.61,5.75-11.33,12-12,20.57-.48,6.43,1.22,8.16,7.55,7.79a36.92,36.92,0,0,1,8.41.28c4.63.8,7.12,4.21,8.25,8.44,1,3.9.6,7.36-3.38,10-3.65,2.4-3.6,5.92-1.5,9.68,2.49,4.47,4.37,9.32,7.15,13.59,1,1.61,4.08,3.16,5.85,2.82a15.47,15.47,0,0,0,11.95-10.28A54.12,54.12,0,0,0,574.48,278c-2.84-12.69-7.28-24.75-15.39-34.9-11.67-14.6-28.16-17.34-43-3.62-11.38,10.54-14.4,23.91-9.7,38.39,2.51,7.73,7,14.8,10.76,22.37h-14l19,18.1c1.14-5,1.4-10.3,3.57-14.67,2.95-5.94,8.66-4.82,13.86-2.66,1.78-7.18,1.09-9.25-4.29-13.19-2-1.47-4.15-2.78-6.18-4.25a23.32,23.32,0,0,1-6.3-30.76C526.49,246.74,532.88,244.19,540.13,246.46ZM827.6,751l-.66,1.72c2.19,3.33,4.27,6.74,6.58,10C843,775.94,853.78,787.78,868.1,796c34.34,19.75,70.9,30.08,110.83,26,21.81-2.22,42.49-8.53,62.48-17.87C964.9,807.77,892,796.93,827.6,751Zm-81.81,24.48a1.19,1.19,0,0,0,.12.77C757,797.6,768.54,818.75,779,840.45c6,12.55,15.5,18,28.61,20.51,16,3,31.92,5.17,48.21,3.67-5.24-1.55-10.59-2.57-15.79-4.14-26.16-7.87-47.48-23.1-64.38-44.25C765.05,803,755.59,788.92,745.79,775.43ZM501.89,472.24c8.23,20.41,16.32,40.45,24.41,60.5l1.55-.19q4.51-19.84,9-39.66c-7.83-2-10.2-5-8.72-10.19,2.15-7.54.55-11.2-6.62-15.17C516.49,478.83,511.52,480.12,501.89,472.24Zm517.75,300.88C980.74,766,942.78,753,902.5,752.7a4.34,4.34,0,0,0,1.92,2.31c12.8,7,26.21,12.52,40.79,14.15,15.21,1.7,30.48,3,45.76,3.85C1000.49,773.57,1010.08,773.12,1019.64,773.12ZM805.2,647.45c-2.74,5-5,9.19-7.34,13.38-11.58,20.95-22.26,42.46-37.4,61.23-10.67,13.23-23.22,23.79-40.26,27.85a10.85,10.85,0,0,0-2,1.08,38.44,38.44,0,0,0,22.08-3.68c11.19-5.6,19.54-14.32,26.75-24.21,16.38-22.51,26.77-48.18,38.3-73.24C805.54,649.49,805.32,648.93,805.2,647.45ZM462,409.61c-.58,2.36-1.15,4-1.39,5.74-.67,4.91.17,10.45-6.22,12.64-.85.3-1.39,1.81-1.85,2.86-2,4.55-4.23,9-5.81,13.73-2.57,7.62-1.39,15,1.64,22.13H450c.62-9.6,1.25-19.21,1.9-29.15,6.83,1.29,8-3.64,10.28-7.33,5.17,4.24,4.58,12.71,12.37,14.37a35.6,35.6,0,0,0-5.14-9.7,11.48,11.48,0,0,1-2.57-9.61C467.57,419.81,466.61,414.5,462,409.61ZM880.69,920.42c-3,5.56-6.14,11-8.86,16.69-7.08,14.82-14.16,29.65-20.82,44.66-2,4.41-2.51,9.45-3.7,14.19l1.93.63C863.72,972.87,870.45,945.81,880.69,920.42Zm-58.48,74.49c-6.22-31-8.62-62.81-16.94-93.48C807.83,933.16,812.17,964.56,822.21,994.91ZM759.78,848.35l-34.78-49C723.11,810.92,743.88,840.22,759.78,848.35Zm-.17,93.28c4.39,19.14,28.35,52.88,43.6,53.92C787.06,978.89,771.2,962.74,759.61,941.63Zm-312-527.24c-.06-5.14-2.42-6.63-5.62-4.92a29.55,29.55,0,0,0-5.34,3.56c-1.57,1.36-4.28,4-3.95,4.52a15.92,15.92,0,0,0,5.86,6.05c1.23.66,4.47-.42,5.45-1.74C445.93,419.32,446.88,416.07,447.63,414.39ZM496,455.92c1,2.88,1.91,5.82,3.07,8.65,2.62,6.36,7.07,7.42,13.49,2.9C509,461.16,502.71,458.67,496,455.92Zm-96.46-22.18c2.34-5-1.9-8.5-4.42-12.2-3.15-4.6-5.41-4.94-10.22-4.09C389,422,394.23,427.84,399.53,433.74Zm.25-17.54c1.87,9.69,3.63,18.82,5.25,27.26.73-2.48,2.76-6,2.53-9.31-.44-6.53-2.14-13-3.36-19.68ZM356,368.85q5.19,9.9,10.4,19.88C368.14,375.11,366.05,371.19,356,368.85Zm79.84,83.61c-2.27-8.37-6.11-9.21-16.48-4Zm43,18.74c0-2.9.22-6.16-.09-9.37-.17-1.73-1.24-3.37-2.08-5.49C471.84,463.64,474.69,468.09,478.76,471.2Zm18.9,24.32,2-.38-3.54-14.52-1.22.23Q496.27,488.19,497.66,495.52Z"/><path d="M644.08,781.49c-17.53-3.8-34.64-7.59-53.29-4.6-23.11,3.7-46.7,5.2-70.13,5.92-41.3,1.27-82.64,1.22-124,1.72-3,0-5.95,0-9.32,0,.85-10-.74-19-5.4-27.35-1.11-2-3.35-3.32-5.07-5-1.33,2.16-3.68,4.26-3.8,6.49-.46,8.22-.19,16.49-.19,25.8-4.09,0-9.48.08-14.86,0-21.82-.38-43.67-.27-65.46-1.38-17.59-.91-35.15-2.9-52.62-5.18-13.17-1.72-24.57-8.57-35.18-16-8.57-6-17.45-4.93-26.86-4.53a18,18,0,0,0-.37,2.12c-.31,10-.27,11-10.46,11.35-16.42.61-32.92.23-49.35-.51-8-.37-8-1.18-8.7-9.25H71.15c11.87-5.56,25-4.59,37.93-7.14,0-8.73.06-17.35,0-26-.08-9.83-.67-19.68-.29-29.49.28-7.29,2.22-14.52,2.56-21.82.25-5.17.74-9.46,5.89-12.18,1-.55,1.46-3.09,1.46-4.71,0-22.5.73-45-.31-67.49-2.2-47.1,32.48-80.13,72.11-88.14,45.23-9.15,90.59,10.2,115,49.59,2.29,3.71,4.11,7.2,9.62,7.08,2.12-.05,4.95,2.69,6.34,4.87a156.53,156.53,0,0,1,8.18,15.42c2.39,4.9,1.35,8.16-3.21,11-1.26.77-2.61,1.4-4.35,2.32,4.32,9.46,8.85,18.67,12.79,28.13C345.7,648.64,361,672.32,374.48,697c8.68,15.88,15.8,32.63,23.22,49.17,1.66,3.7,3.27,5.71,7.47,5.16a33,33,0,0,1,5.79.21c-.26,5.28-.49,10.05-.72,14.81l13.19-6.1v-6.82c10.38,0,20.51-.53,30.56.09,31.93,2,63.85,4.06,95.72,6.75,28.37,2.41,56.77,4.93,84.33,12.81.32.09.66.14,1,.23,13.56,3.86,14,4.67,14.39,18.8.58,23.19.7,46.42-4.4,69.16-7.07,31.43-26.88,52.09-56.58,63.6-23.76,9.21-48.64,13.75-73.75,17.21-62.64,8.64-125.63,8.16-188.6,6.52-56-1.45-111.77-6-167-15.54-24-4.16-47.73-9.11-70.59-17.74-19.3-7.28-19.57-7.39-19.6-27.74q-.09-58.74-.1-117.49c0-.64.1-1.29.14-1.74,34,15,70.33,18.12,106.45,21.85,84.17,8.7,168.66,10.09,253.15,8.49,53.12-1,106.21-4,159.28-6.85,16.56-.89,33-4.22,49.46-6.59,2.39-.35,4.65-1.57,7-2.39ZM213.35,672.92l26.6.86c.33,0,.67,0,1,.07,6.67.64,11.64,4.92,12.57,11.54a37.35,37.35,0,0,1-.05,10.92c-.95,5.93-4.43,10.18-10.64,11-8.87,1.2-17.82,1.86-26.72,2.9-1.46.17-3.83.9-4.07,1.81-1.36,5.27-5.29,5.75-9.63,6.11-8.41.69-16.8,1.55-24.74,2.3V750H297.5c-3-47.63-6.85-94.1-14.92-140.36-4.54,1.6-9.26,1.85-10.75-2.2-3.16-8.63-8.86-17.09-4.8-27.13a4,4,0,0,0-.27-3.19c-4.28-6.5-8-13.6-13.24-19.2-13.48-14.33-30.75-17.41-49.58-14.69C177.56,547,159.29,566,160.39,592.7c.85,20.47.76,41,1.1,61.46a19.92,19.92,0,0,0,.31,2.66c11.86,0,23.33.36,34.77-.1C209.12,656.22,212.91,659.28,213.35,672.92ZM124.08,619h.42c0,12.33,0,24.66,0,37,0,6.39,1.95,8.25,8.35,8.28,8.12.05,9.72-1.25,9.65-8.27-.2-21.49-.57-43-.71-64.47-.09-13.77,2.82-26.71,11.11-38.14,24.58-33.89,78.26-40.43,109.7-12.75,7,6.16,12.19,14.39,18.16,21.72,2,2.4,3.23,5.49,7.45,4.28,7-2,7.92-4.75,3.6-11.81a96.42,96.42,0,0,0-121.21-38.29,77.54,77.54,0,0,0-46.56,73C124.24,599.35,124.08,609.18,124.08,619Zm41,53.65L164,671.1c-1.31-.58-2.62-1.66-3.94-1.67-12.65-.15-25.3-.25-37.95,0-3,.05-5,1.91-4.62,5.71.6,6.79.73,13.62,1,20.44.67,19.8,1.26,39.61,2,59.41.26,7.29,2.3,9.67,9.54,10.11,6.46.39,13,.11,19.45-.07,5-.14,7.64-3.19,7.84-8,.27-6.66.31-13.33,0-20-.06-1.3-2.06-3.14-3.51-3.57-2-.58-4.28,0-6.44,0-6,0-12,.19-18-.35-1.71-.16-3.22-2.54-4.82-3.91,1.64-.65,3.26-1.8,4.93-1.88,7.81-.36,15.63-.45,23.45-.58,3.58-.06,4.79-1.72,4.72-5.32-.24-12-.18-24-.21-36C157.4,680,155.43,673.61,165.09,672.66Zm159.82-87.07c-2.78-5.58-5.22-10.11-7.31-14.79-1.76-3.94-4.51-5.42-8.71-4.83-13,1.83-24.32,7.6-34.82,15.11-1.39,1-2.78,3.53-2.51,5,1.07,5.87,2.81,11.61,4.49,18.13C291.67,594.39,306.7,587.22,324.91,585.59ZM220.33,700.06c0-5.48,0-10.95,0-16.42,0-3.32-1.87-4.82-5.14-4.6-5.15.34-10.31.53-15.43,1.11-9.42,1.06-18.86,2.12-28.21,3.67-5.27.88-7.95,6-6.8,11.49.94,4.54,2.83,5.57,9.16,4.82q17.1-2.05,34.18-4.19C212.79,695.35,217.9,693.48,220.33,700.06Zm89.79-69.91c.57,2.54,1.14,5.07,1.73,7.6,1.8,7.76,5.11,15.52,5.08,23.27,0,12.66,2.72,24.08,7.56,35.69,7.66,18.39,10.13,38.21,13.1,57.81.49,3.25,1.11,6.69,2.67,9.47.81,1.44,4,2.43,5.79,2.12,1.14-.2,2-3.15,2.58-5,.32-1-.15-2.3-.41-3.43-4.76-21.5-10.64-42.65-20.89-62.29a32.16,32.16,0,0,1-4-17.73C324.66,660.35,316.24,645.56,310.12,630.15Zm18.81,119.22c-.89-5.23-1.22-9.57-2.44-13.65-1.16-3.87-3.72-4.34-6.28-1.81-6.32,6.27-9.19,24-4.84,32.05,1,1.79,3.26,4,4.95,4s4.3-2.24,4.84-4C326.89,760.29,327.84,754.41,328.93,749.37ZM315,599.59l-1.77,1.14a36.62,36.62,0,0,0,1,5.13q3.3,9.67,6.83,19.27c4.09,11.07,8.16,22.15,12.52,33.11.59,1.49,2.78,2.34,4.22,3.49.44-1.62,1.59-3.43,1.21-4.82-5.11-18.28-11.15-36.24-20-53.09C318.11,602.17,316.35,601,315,599.59Zm65.26,140c-1.25-7.92-4.75-13.23-10.06-17.34-1-.8-3.39-1.52-3.93-1-1,1-1.84,3.1-1.42,4.28a119.13,119.13,0,0,0,6.66,15.94c.8,1.53,4,3,5.56,2.59S379.53,740.77,380.27,739.63Zm-81-92.33,2.2-.69C299.68,634.8,298,623,296,611.2c-.25-1.49-2.14-2.69-3.28-4-.79,1.62-2.46,3.38-2.23,4.83q2.26,14,5.31,27.91C296.38,642.5,298.07,644.84,299.25,647.3Zm.66,118.9-37.79,3.23c0,.61,0,1.22.05,1.82,12.75.91,25.37,4,38.66,1.89C300.51,770.71,300.28,769,299.91,766.2ZM205.81,666l.4-1c-1.43-.86-2.87-2.49-4.29-2.47-13.26.14-26.53.56-40.57.92.94,2,1.07,2.91,1.5,3.09,1.93.77,4,2,5.93,1.87C181.13,667.81,193.47,666.85,205.81,666Zm32.33,13c-3.07.4-5.56.58-8,1.07-4.34.86-4.24,4.43-3.52,7.42.27,1.14,3.05,2.35,4.7,2.36a51.55,51.55,0,0,0,10.85-1.16c1.85-.38,3.5-1.74,5.24-2.67-1.51-2-2.75-4.36-4.64-5.91C241.55,679.09,239.37,679.24,238.14,679Zm65.72-15.38-1.48.15q4.14,27.79,8.29,55.61l2.05-.33C312,700.21,307.47,682,303.86,663.6Zm49,25.58L351,690.33c3,6.17,5.9,12.43,9.21,18.44.88,1.6,3.13,2.44,4.76,3.63.15-2.27,1.28-5.17.29-6.69C361.46,700,357,694.66,352.82,689.18Z"/><path d="M395.68,362.93c.93-7.63-4.71-9.54-10.19-11.08-4.95-1.39-10.11-2-15.18-3-4-.74-6.06-2.74-4.37-7,1.3-3.22.43-5.11-2.75-6.71-2.56-1.27-4.64-3.49-6.92-5.27,10.2-13.89,41.21-23.21,60.33-18-4.1,2.23-7.5,4.14-11,6A101.19,101.19,0,0,1,395.39,323c-6.62,2.58-7.78,8.61-8.86,14.26-1,5.34,4,9.76,10.57,10.12,7.16.39,13.32-2.43,19-6.4,2.14-1.49,4.19-3.12,6.37-4.75C426.4,349.82,414.84,359.65,395.68,362.93Z"/><path d="M312.58,469.32c.92-2.37,2.29-7.19,4.56-11.52,5.84-11.14,14.92-19.45,24.83-26.89,1-.79,2.64-.85,4-1.25a17.91,17.91,0,0,1,.64,4.11c-.63,8.12-1.31,16.23-2.13,24.33-.76,7.43-3,14.42-8.15,20a21.36,21.36,0,0,1-8.06,5.53C319.78,486.57,312.41,480.85,312.58,469.32Zm22.17-23.39-1.19-.74c-4.36,6.32-8.72,12.62-13.05,19a3.14,3.14,0,0,0-.63,1.86,28.83,28.83,0,0,0,.79,3.64c1.17-.32,2.65-.3,3.46-1a13.25,13.25,0,0,0,3.19-4.38C329.91,458.19,332.29,452,334.75,445.93Z"/><path d="M299.82,432.8c-8.33,9.62-16.55,19.35-27.55,26.21a16.2,16.2,0,0,1-4.1,1.75c-5.81,1.69-12-.1-14.36-4.05s-1.37-9.31,4.16-13.48c5.06-3.83,10.75-7.57,16.76-9.23,7.81-2.17,16.21-2.25,24.35-3.23C299.33,431.45,299.57,432.13,299.82,432.8Zm-38.24,15.73c8.13,1.11,11.27-6.79,17.39-9.41C272.17,440.35,265.54,441.88,261.58,448.53Z"/><path d="M413.85,574.61c-1.38,5-1.86,9.65-4,13.36-1.49,2.56-5.11,4.72-8.14,5.35-4,.83-7.21-1.82-9.21-5.48-4.59-8.4-.32-27.33,7.45-33.07,3.32-2.46,7.39-1.62,9.27,3C411.4,563.22,412.4,569.15,413.85,574.61Zm-14.59,8.27c3.63-4.61,3.82-9,1-18.06C399.4,570.53,395.81,576,399.26,582.88Z"/><path d="M497.11,374.75c-4.46-6.1-9.18-12-13.33-18.34-10.93-16.58-22.92-32.27-37.13-46.19a14.52,14.52,0,0,1-1.37-1.46c-4.92-6.27-5.34-6.28-10.13-.1-1-4.57,2-9.42,6.36-10a4.94,4.94,0,0,1,3.65,1.57c16.25,18.66,34,36.12,46.63,57.7,3,5.09,6.93,9.74,6.68,16.06Z"/><path d="M359.37,514.07c-.65,3.51-1,7.53-2.2,11.27-1.67,5.17-7.08,7.86-12.42,6.8-4.41-.86-7.63-5.11-7.23-10.56.73-10,6-17.83,12.92-24.58,2.55-2.47,5.21-1.46,6.05,1.86C357.71,503.67,358.37,508.62,359.37,514.07Zm-8.27-6.7-2.1-.72c-1.86,3.75-3.86,7.43-5.47,11.28-.38.89.55,2.33.88,3.52,1.2-.61,3.16-1,3.46-1.87C349.21,515.6,350.07,511.46,351.1,507.37Z"/><path d="M406.46,488.08c-1.21,3.76-1.79,7.67-3.64,10.84-3.12,5.35-10,5.34-12.25-.37A31.34,31.34,0,0,1,389,483.17c.79-5.27,3.56-10.29,5.76-15.3.59-1.32,2.29-3.05,3.42-3s2.78,1.89,3.17,3.25C403.25,474.63,404.76,481.25,406.46,488.08Zm-9.72-13.4c-4,8.23-4.09,12.08,0,15.2Z"/><path d="M421.7,642.35c-.31,2.31-.36,3.31-.59,4.27-1.23,5.12-4.57,8.4-8.23,7.7-4.87-.93-6.32-5.1-6.1-9a31,31,0,0,1,3.46-12.14c2.31-4.42,5.93-4.24,8.21.15C420.1,636.47,420.9,640.06,421.7,642.35Zm-8.59,4.45h1.71v-9.89h-1.71Z"/><path d="M413.32,705.26c7.22,3.28,11.39,12.66,8.52,19-.85,1.88-4.15,4.54-5.19,4.1-2.72-1.13-6.09-3.37-6.9-5.9C407.83,716.56,410.09,710.87,413.32,705.26Z"/><path d="M583.65,404.92c-.26.5-.68,2.64-1.79,3.08a5.61,5.61,0,0,1-4.91-.63,34.92,34.92,0,0,1-11.1-19.58c-.46-2.13.26-4.13,3.31-3.27C574.37,386,583.57,398.21,583.65,404.92Z"/><path d="M655.72,600.14c7.73,2.51,12.5,5.94,16,11,2.94,4.24,2.47,9.15-.82,11.1s-7.63.51-9.69-4.28C659,612.65,657.75,606.89,655.72,600.14Z"/><path d="M330.34,416.6c-6,5-11.37,10.46-19.16,11.65-1.89.29-5-1.37-5.94-3-.7-1.2.69-4.4,2.06-5.85C311.72,414.71,323.17,413.35,330.34,416.6Z"/><path d="M597.31,480.63c-11.55-1.15-17.89-10.45-15.49-22.17C588.4,459,596.31,470.14,597.31,480.63Z"/><path d="M433.09,369.89c3.86,4.12,3.19,8.87,1.34,13.42-1.68,4.09-5.75,5.19-9.48,3.14-3.93-2.17-5.45-6.74-2.28-10,2.8-2.86,7-4.36,10.58-6.46Z"/><path d="M530.64,418.35c-9.93-9.28-19.56-18.8-24.51-31.89l1.39-1.06,24.72,31.73Z"/><path d="M367,401.5c-4.84,5.11-9.52,10.39-14.63,15.2-1.07,1-3.76.29-5.7.37.49-1.8.4-4.32,1.57-5.26,5.47-4.34,11.3-8.24,17-12.3Z"/><path d="M435,521.72c3.08,5.26,4.51,10.32,2.43,15.77-.53,1.4-2.7,3.34-3.71,3.12a6.76,6.76,0,0,1-4.05-3.63C427.9,532.78,430.42,525.47,435,521.72Z"/><path d="M656.52,585.47c-1.25,2-1.69,3.48-2.62,3.89s-3.12.29-3.56-.38c-2.36-3.62-5-7.27-6.24-11.3-1-3.06,2.26-4.85,4.55-2.59C651.68,578.1,653.9,581.93,656.52,585.47Z"/><path d="M530.53,373.57c5.87,7.93,9.76,16.85,12.76,26.22l-1.42.73-13.29-25.87Z"/><path d="M491.36,407.77l13.74,14.46C499.35,420.93,494.26,415.64,491.36,407.77Z"/><path d="M546.31,320.75c-5.29,1-13-4.49-15.46-10.92Z"/><path d="M814.75,438.44c-7.55,8.35-14.94,16.83-22.67,25-19.83,20.95-40.42,41.1-64.34,57.45-7.4,5.05-15.21,9.5-24.81,10.63,1.13-1.19,2.22-2.43,3.4-3.57s2.66-2.53,4.08-3.69c17-13.88,34.2-27.61,51.1-41.65,17.67-14.68,35.09-29.65,52.63-44.49Z"/><path d="M724.82,544.53c39.7,10.37,79.94,19.32,110.12,49.75-.36.77-.71,1.53-1.07,2.29C802,569.42,763.52,556.65,724.82,544.53Z"/><path d="M489.43,540.27c10.07,7.21,14,26,7.81,36.28-2.73,4.52-7.09,5.06-10.64,1.09a14,14,0,0,1-2.87-5.14C481.37,564.66,484.62,546.42,489.43,540.27Zm.08,23.44,1.36,0V548.27l-1.36,0Z"/><path d="M482.68,617.7c6.16,6.07,10.13,12.43,10.77,20.43.4,5-2.24,9-5.94,9.78s-7.7-2-9.16-6.87C475.92,632.92,477.7,625.4,482.68,617.7Z"/><path d="M529.34,681a17.58,17.58,0,0,1,8.5,12.76,6.59,6.59,0,0,1-2.23,5.31c-.87.61-3.79-.61-5-1.79C526.73,693.68,526.27,686.2,529.34,681Z"/><path d="M469.27,505.73c.9,4.66,2.19,9.29,2.5,14,.1,1.59-2.3,3.34-3.56,5-1.24-1.76-3.59-3.58-3.5-5.27.26-4.71,1.53-9.36,2.41-14Z"/></svg>