<?xml version="1.0" encoding="iso-8859-1"?>
<!-- Uploaded to: SVG Repo, www.svgrepo.com, Generator: SVG Repo Mixer Tools -->
<!DOCTYPE svg PUBLIC "-//W3C//DTD SVG 1.1//EN" "http://www.w3.org/Graphics/SVG/1.1/DTD/svg11.dtd">
<svg fill="#000000" height="800px" width="800px" version="1.1" id="Capa_1" xmlns="http://www.w3.org/2000/svg" xmlns:xlink="http://www.w3.org/1999/xlink" 
	 viewBox="0 0 431.156 431.156" xml:space="preserve">
<g>
	<path d="M302,242.556h-7.609v-15.242c0-41.989-50.483-73.686-70.64-84.669c-0.066-1.431-0.516-2.815-1.318-4.003
		c3.447-2.207,5.587-5.971,5.587-10.047c0-4.075-2.14-7.84-5.587-10.05c0.868-1.285,1.345-2.798,1.345-4.355
		c0-2.737-1.422-5.232-3.762-6.688l-2.95-23.407c-0.095-0.75-0.732-1.313-1.488-1.313c-0.756,0-1.394,0.563-1.488,1.313
		l-2.95,23.407c-2.34,1.456-3.762,3.951-3.762,6.688c0,1.558,0.476,3.071,1.344,4.355c-3.446,2.209-5.586,5.974-5.586,10.05
		c0,4.076,2.14,7.84,5.586,10.047c-0.802,1.188-1.251,2.572-1.317,4.003c-20.157,10.983-70.64,42.68-70.64,84.669v15.242h-7.609
		c-1.85,0-3.35,1.499-3.35,3.35v32.657c0,1.85,1.5,3.35,3.35,3.35h3.806v66.323h29.986v-3.015c0-30.454,52.629-50.411,52.629-50.411
		s52.633,19.957,52.633,50.411v3.015h29.985v-66.323H302c1.85,0,3.35-1.5,3.35-3.35v-32.657
		C305.35,244.055,303.85,242.556,302,242.556z M160.119,271.279h-4.836h-4.836v-10.924c0-4.328,2.688-7.164,4.836-7.164
		c2.149,0,4.836,2.836,4.836,7.164V271.279z M190.266,271.279h-4.836h-4.835v-10.924c0-4.328,2.686-7.164,4.835-7.164
		c2.15,0,4.836,2.836,4.836,7.164V271.279z M220.412,271.279h-4.834h-4.835v-10.924c0-4.328,2.685-7.164,4.835-7.164
		c2.149,0,4.834,2.836,4.834,7.164V271.279z M250.559,271.279h-4.835h-4.835v-10.924c0-4.328,2.686-7.164,4.835-7.164
		c2.148,0,4.835,2.836,4.835,7.164V271.279z M280.708,271.279h-4.837h-4.836v-10.924c0-4.328,2.688-7.164,4.836-7.164
		c2.15,0,4.837,2.836,4.837,7.164V271.279z"/>
	<path d="M428.859,275.921h-5.216v-10.449c0-28.453-33.813-50.011-47.94-57.777c0.001-0.009,0.002-0.018,0.002-0.026
		c0-1.004-0.265-1.984-0.755-2.849c2.271-1.626,3.662-4.224,3.662-7.025c0-2.802-1.393-5.4-3.663-7.026
		c0.49-0.866,0.756-1.845,0.756-2.849c0-1.965-0.981-3.762-2.609-4.862l-1.996-15.831c-0.095-0.75-0.732-1.313-1.488-1.313
		c-0.756,0-1.394,0.563-1.488,1.313l-1.993,15.83c-1.629,1.098-2.61,2.896-2.61,4.862c0,1.004,0.265,1.983,0.754,2.848
		c-2.271,1.626-3.665,4.225-3.665,7.027c0,2.802,1.393,5.399,3.664,7.025c-0.488,0.865-0.753,1.843-0.753,2.849
		c0,0.009,0.001,0.017,0.001,0.026c-14.125,7.765-47.939,29.324-47.939,57.778v10.449h-5.219c-1.269,0-2.297,1.028-2.297,2.296
		v22.39c0,1.268,1.028,2.296,2.297,2.296h2.608v45.471h20.559v-2.068c0-20.879,36.08-34.56,36.08-34.56s36.083,13.682,36.083,34.56
		v2.068h20.559v-45.471h2.608c1.269,0,2.297-1.028,2.297-2.296v-22.39C431.156,276.949,430.127,275.921,428.859,275.921z
		 M331.589,295.613h-3.314h-3.316v-7.491c0-2.967,1.842-4.909,3.316-4.909c1.473,0,3.314,1.942,3.314,4.909V295.613z
		 M352.258,295.613h-3.315h-3.315v-7.491c0-2.967,1.843-4.909,3.315-4.909c1.474,0,3.315,1.942,3.315,4.909V295.613z
		 M372.926,295.613h-3.315h-3.314v-7.491c0-2.967,1.84-4.909,3.314-4.909s3.315,1.942,3.315,4.909V295.613z M393.592,295.613h-3.313
		h-3.316v-7.491c0-2.967,1.841-4.909,3.316-4.909c1.473,0,3.313,1.942,3.313,4.909V295.613z M414.261,295.613h-3.315h-3.315v-7.491
		c0-2.967,1.843-4.909,3.315-4.909c1.473,0,3.315,1.942,3.315,4.909V295.613z"/>
	<path d="M120.793,275.921h-5.22v-10.449c0-28.455-33.815-50.014-47.939-57.778c0-0.009,0.001-0.017,0.001-0.025
		c0-1.005-0.264-1.984-0.752-2.849c2.271-1.626,3.664-4.224,3.664-7.025c0-2.802-1.393-5.401-3.665-7.027
		c0.489-0.865,0.753-1.844,0.753-2.848c0-1.966-0.981-3.764-2.609-4.862l-1.994-15.83c-0.095-0.75-0.732-1.313-1.488-1.313
		c-0.756,0-1.394,0.563-1.488,1.313l-1.997,15.831c-1.628,1.1-2.61,2.897-2.61,4.862c0,1.003,0.266,1.982,0.756,2.849
		c-2.271,1.626-3.663,4.225-3.663,7.026c0,2.801,1.392,5.399,3.662,7.025c-0.49,0.866-0.755,1.845-0.755,2.849
		c0,0.009,0.001,0.018,0.001,0.027c-14.127,7.766-47.939,29.324-47.939,57.776v10.449H2.296c-1.268,0-2.296,1.028-2.296,2.296v22.39
		c0,1.268,1.028,2.296,2.296,2.296h2.608v45.471h20.56v-2.068c0-20.879,36.079-34.56,36.079-34.56s36.082,13.682,36.082,34.56v2.068
		h20.558v-45.471h2.609c1.268,0,2.296-1.028,2.296-2.296v-22.39C123.09,276.949,122.062,275.921,120.793,275.921z M23.524,295.613
		h-3.316h-3.313v-7.491c0-2.967,1.84-4.909,3.313-4.909c1.473,0,3.316,1.942,3.316,4.909V295.613z M44.191,295.613h-3.315h-3.313
		v-7.491c0-2.967,1.841-4.909,3.313-4.909c1.475,0,3.315,1.942,3.315,4.909V295.613z M64.858,295.613h-3.314h-3.316v-7.491
		c0-2.967,1.843-4.909,3.316-4.909c1.474,0,3.314,1.942,3.314,4.909V295.613z M85.529,295.613h-3.317h-3.315v-7.491
		c0-2.967,1.842-4.909,3.315-4.909c1.473,0,3.317,1.942,3.317,4.909V295.613z M106.196,295.613h-3.317h-3.313v-7.491
		c0-2.967,1.841-4.909,3.313-4.909c1.476,0,3.317,1.942,3.317,4.909V295.613z"/>
</g>
</svg>