<svg id="Layer_1" data-name="Layer 1" xmlns="http://www.w3.org/2000/svg" viewBox="0 0 751.57 846.24"><path d="M278.41,443.72c1.14-2.28,2.26-4.52,3.5-7-24.36-15.12-40.09-36.48-46-64.58a92.22,92.22,0,0,1,6.14-58c16.59-37.19,57.48-60.54,98.5-56.72,42.37,3.95,81.46,36.73,88.08,83,13.85-8,28.76-12.91,44.25-16.13,31.37-6.52,61.66-2.73,90.82,10.14,23.18,10.23,42.94,25.12,57.36,46.09,29,42.19,32.56,86.34,8.15,131.86A103.77,103.77,0,0,1,605,541.94a6.08,6.08,0,0,0-1.89,3.54A103,103,0,0,1,579.6,599c-25.29,30.56-58.6,46.21-97.08,52.06-33.83,5.15-66.6,1.18-98-12.49-17.09-7.44-32.32-17.67-44.93-31.72A111.43,111.43,0,0,1,305,621.39c-37.58,8.42-73.83,5.3-107-15.4-26.69-16.64-42.81-40.5-42.83-73,0-26.23,11.81-47.11,31.81-63.39,22.64-18.45,48.94-26.89,78-26.8C269.33,442.86,273.65,443.4,278.41,443.72Zm9.28,13.54c-.79-.09-1.38-.11-1.95-.23a110.2,110.2,0,0,0-38.49-1.35c-24.72,3.5-46.17,13.55-62.53,32.88-13.32,15.74-19,33.86-15.56,54.44,3.11,18.62,12.94,33.31,27.35,45,19.24,15.63,41.77,22.63,66.21,23.86,28.8,1.46,55.18-5.61,78.36-23.26a10.23,10.23,0,0,1,1.59-.81l2.9,3.44a119.84,119.84,0,0,0,27.53,24.33c23,14.52,48.43,21.51,75.4,22.22,41,1.08,78.49-9.4,109.21-37.77,27.19-25.1,40.33-55.94,34.39-93.51a11.1,11.1,0,0,1,.22-2c5.27,6.73,6.89,14.16,8.72,21.82,1.42-1.45,2.61-2.46,3.57-3.67,2.76-3.5,5.59-7,8.09-10.64,16.61-24.45,23-51.38,17.85-80.47-6.38-36-26.45-62.93-57.76-81.26-29.14-17-60.76-22-93.86-16.08-34.91,6.27-63.51,23.29-84.75,52-3.26,4.4-6,9.19-8.8,13.55,5.76,3.35,11.09,6.14,16.1,9.43,6.09,4,10.67,9.26,12.16,13.1C367.75,386.93,303.89,408.38,287.69,457.26Zm1.46-30.78c21.77-26.05,49.35-36.86,82.83-32.72,3.43-5,6.7-10.19,10.42-15.05,9.09-11.86,20.23-21.59,32.37-30.23a4.75,4.75,0,0,0,1.86-3.67c-2.77-17.23-9.07-33.06-20.91-46.05-21.06-23.11-47.46-32.35-78.28-27.64a82.64,82.64,0,0,0-62.23,118.35A87.19,87.19,0,0,0,289.15,426.48Z"/><path d="M336.24,186.41q0,23.49,0,47c0,1.32.36,2.93-.24,3.91-1.11,1.77-2.66,4.26-4.3,4.49-2.63.36-4.64-1.87-4.87-4.74s-.12-6-.12-9q0-45.17-.08-90.32c0-.6,0-1.21,0-1.81.2-3.49,2.07-5.58,5-5.4,3.28.21,4.62,2.32,4.65,5.35.07,6.26.05,12.52.05,18.78q0,15.9,0,31.79Z"/><path d="M132.91,248.37c2.21.85,3.6,1.25,4.88,1.89q28.1,14.12,56.16,28.26c12.28,6.15,24.61,12.2,36.91,18.3,3.36,1.66,4.62,4.36,3.27,6.89-1.24,2.34-4.1,2.93-7.34,1.32q-47.56-23.64-95.1-47.32c-2.23-1.11-3.65-2.95-2.72-5.19C129.68,250.83,131.64,249.65,132.91,248.37Z"/><path d="M432.63,306.38c-1.33-1.25-3.42-2.36-4.06-4-1-2.66.89-4.38,3.31-5.56,11.8-5.76,23.59-11.53,35.33-17.41,19.17-9.6,38.29-19.3,57.43-29,.86-.43,1.72-.88,2.62-1.23,2.59-1,4.85-.54,6.15,2,1.4,2.77.33,5-2.27,6.32-7.06,3.65-14.17,7.21-21.28,10.76q-36.21,18.06-72.44,36.09C436.14,305,434.78,305.5,432.63,306.38Z"/><path d="M164.1,361.32q-25.86,0-51.73,0c-2.94,0-5.31-.81-6-4s1.72-5.5,5.83-5.52c12.18-.05,24.36,0,36.54,0q33.65,0,67.29.12c3.72,0,5.9,1.63,6,4.31.1,3-2.36,5.08-6.15,5.07l-49.19-.1H164.1Z"/><path d="M277.75,258.3c-1.27,1.4-2.3,3.57-3.7,3.84a6.71,6.71,0,0,1-5.31-1.76c-2-2.17-3.22-5.06-4.82-7.6l-50.11-79.41a16.09,16.09,0,0,1-1.6-2.82c-1-2.59-.48-4.85,2.17-6.08s4.9-.29,6.45,2.2c8,12.77,15.89,25.56,23.9,38.3,10,15.91,20,31.77,30,47.67C275.76,254.25,276.54,256,277.75,258.3Z"/><path d="M451.11,169a21.74,21.74,0,0,1-1.49,3.24Q425,211.37,400.29,250.46c-1.93,3.06-3.72,6.2-5.67,9.24-1.81,2.81-4.35,3.52-6.74,1.91-2.61-1.76-2.73-4.16-1.2-6.63q9.81-15.81,19.72-31.56,17.46-27.85,35-55.66a9.27,9.27,0,0,1,4.22-3.55C448.44,163.17,451,165.31,451.11,169Z"/><path d="M147.34,461.69c-1.3-1.2-3.46-2.27-3.7-3.67-.28-1.59.64-4.24,1.94-5.11,4.67-3.16,9.7-5.8,14.63-8.57q35.28-19.8,70.61-39.48a8.42,8.42,0,0,1,5.37-.91,4.28,4.28,0,0,1,2.45,3.41,7.05,7.05,0,0,1-2.41,4.74,103.66,103.66,0,0,1-10.26,6q-36.22,20.31-72.47,40.59C151.73,459.71,149.84,460.49,147.34,461.69Z"/><path d="M384.4,188c-1.79,5.16-3.18,9.37-4.7,13.54q-6.17,16.92-12.41,33.82c-1.27,3.45-3.38,4.83-6.13,4s-3.86-3.51-2.68-6.83q8.07-22.56,16.29-45.07c.94-2.58,2.9-4.22,5.56-3.18C382,184.94,383.21,186.86,384.4,188Z"/><path d="M305.21,235.84c-1.11,1.1-2.3,3.28-3.61,3.35a8,8,0,0,1-5.4-2.35c-1.23-1.25-1.49-3.46-2.14-5.27q-7.21-20-14.4-40c-1.32-3.68-.27-6.57,2.65-7.48s4.92.77,6.21,4.42c4.93,13.94,9.93,27.85,14.89,41.78C304,231.82,304.44,233.43,305.21,235.84Z"/><path d="M199.57,231.41a30.13,30.13,0,0,1,4.1,2.54q17.37,15.54,34.66,31.17c2.2,2,3.32,4.24,1.28,6.92-1.71,2.24-4.68,2.15-7.3-.18-11.7-10.4-23.43-20.76-34.95-31.36-1.27-1.17-1.82-3.86-1.56-5.68C196,233.57,198.15,232.61,199.57,231.41Z"/><path d="M468.21,236.43c-.89,1.52-1.3,2.87-2.21,3.68q-18.06,16.06-36.25,32a4.56,4.56,0,0,1-6.79-.19c-1.87-1.84-1.38-4.54,1.25-6.87,9.18-8.15,18.42-16.23,27.61-24.36,2.8-2.47,5.39-5.21,8.39-7.38a6.07,6.07,0,0,1,4.9-.58C466.37,233.18,467.13,235.05,468.21,236.43Z"/><path d="M160.77,311.08c6.12,1.39,12.45,2.81,18.78,4.28,9,2.08,18,4.22,27.08,6.31,3.77.87,5.59,3,4.89,5.79s-3.14,3.87-6.66,3.08q-22.37-5-44.71-10.07c-2.86-.65-4.57-2.41-4.33-5.32C156,312.53,157.89,311.2,160.77,311.08Z"/><path d="M166.38,402.09c-2.47,0-4.41-1.17-4.81-3.77-.44-3,1.37-4.71,4.09-5.52,7.49-2.22,15-4.37,22.49-6.61,6.68-2,13.3-4.24,20-6a8,8,0,0,1,5.93,1c2.45,1.76,1.48,6-1.7,7-15,4.75-30.1,9.25-45.17,13.83A4.78,4.78,0,0,1,166.38,402.09Z"/><path d="M504.22,306.44c2.85,0,4.51,1.23,4.81,3.95a4.28,4.28,0,0,1-4.59,4.72c-15.66-.21-30.89,2.52-45.94,6.54a21.8,21.8,0,0,0-3.1,1c-1.67.74-3.33,1.39-4.09-1s.35-4.07,2.53-4.83a45.75,45.75,0,0,1,6-1.3l43.11-8.85C503.4,306.55,503.88,306.49,504.22,306.44Z"/><path d="M231.36,440c7-8,9.5-8.5,13.39-2.15Z"/><path d="M180.94,544.46c16.42,28.7,42.34,41.94,73.53,46.28,23.89,3.33,47.12.3,68.92-10.69a92,92,0,0,0,25.17-18.65,47.85,47.85,0,0,1-10.26,14.79c-14.81,15.15-33.26,22.67-53.86,25.4-21.91,2.9-43.11.09-62.93-10C205,583.25,191.78,571.2,184,554,182.66,551,182,547.64,180.94,544.46Z"/></svg>