<svg id="Layer_1" data-name="Layer 1" xmlns="http://www.w3.org/2000/svg" viewBox="0 0 751.57 846.24"><path d="M96.55,654.29c.79-1.15,1.94-3.74,3.85-5.48a333.26,333.26,0,0,1,70.26-48.76A427.51,427.51,0,0,1,275.6,561.82a485,485,0,0,1,120.28-11.56c46.41,1.25,91.81,8.69,135.93,23.33,49,16.25,93.81,39.89,132.44,74.53.28.26.57.49.84.75,4,3.79,4.78,8.74,1.94,12s-7.59,3.49-11.93.32c-9.91-7.26-19.61-14.83-29.63-21.92-21.38-15.14-44.44-27.24-68.61-37.24C517.21,585.65,475.94,575.6,433.31,571a464.9,464.9,0,0,0-150.72,8c-44.16,9.68-86.24,24.9-124.79,48.7-16.06,9.92-31,21.72-46.32,32.79-3.13,2.26-6.21,3.79-10.07,2.48C98,661.8,96.38,659.39,96.55,654.29Z"/><path d="M486.3,552.31c2.33-6.29,4.81-11.68,6.33-17.32,10.72-39.77,1.39-74.88-26.43-104.69-42.13-45.15-115-47.94-160.77-6.33C278.94,448,266,478.13,268.35,514.24a89.69,89.69,0,0,0,8.29,31.85c2.59,5.6,2.44,6.11-3.54,7.63-15.21,3.87-12.44,5-17.32-9.14-16-46.29-.83-100.73,36.6-133.24,28.21-24.51,60.95-36.43,98.25-34.25,57.61,3.36,107.86,43.33,121.2,98.83a124.87,124.87,0,0,1-5.94,78.16c-.42,1-2.19,2.37-3.06,2.2C497.46,555.22,492.16,553.77,486.3,552.31Z"/><path d="M139.94,500.61h76c5.3,0,8.12,2.32,8.17,6.68.06,4.71-2.63,7.21-8.06,7.21q-76.36,0-152.74,0c-5.24,0-8.78-3.1-8.66-7.37.12-3.94,3.41-6.53,8.55-6.54,13.92,0,27.84,0,41.76,0h35Z"/><path d="M624.9,514.52H552.28c-1.26,0-2.51,0-3.76,0-4.91-.16-7.83-2.89-7.79-7.25,0-4.19,2.85-6.64,7.83-6.65,12.55,0,25.09,0,37.63,0q56.82,0,113.64.05a27.68,27.68,0,0,1,5.22.45,5.88,5.88,0,0,1,5.15,5.67,6.47,6.47,0,0,1-4.5,7,18.92,18.92,0,0,1-5.92.75q-37.44.08-74.88,0Z"/><path d="M530.64,442.64c-4.37-.36-6.56-2-7.3-5.18-.82-3.58.85-6.12,3.89-7.73,6.88-3.62,13.82-7.11,20.74-10.65l112.79-57.69c.56-.28,1.11-.61,1.68-.85,3.92-1.65,7.9-.29,9.6,3.26,1.62,3.38.27,7.19-3.5,9.17-7.66,4-15.39,7.89-23.09,11.82q-54.78,27.91-109.56,55.79A45.87,45.87,0,0,1,530.64,442.64Z"/><path d="M241.92,435.79c0,5.43-5.21,8.43-10.34,5.92-10.14-4.94-20.2-10-30.24-15.15q-38-19.38-76-38.85-13.71-7-27.47-13.95c-4.73-2.39-6.64-6.58-4.66-10.35s6-4.63,10.81-2.19q30.47,15.52,60.89,31.16,36,18.42,71.93,36.83C239.79,430.69,241.75,432.66,241.92,435.79Z"/><path d="M301.58,371.06c-.08,4.16-1.59,6.33-4.54,7.25-3.32,1-6.25.26-8.28-2.72q-5.7-8.4-11.28-16.88-33-50-65.92-100.17a11.1,11.1,0,0,1-1.72-7.62c.42-1.88,3-4,5.11-4.63,3.24-1,6,.81,7.9,3.72q11.82,18.09,23.69,36.16,26.39,40.24,52.76,80.5A40.77,40.77,0,0,1,301.58,371.06Z"/><path d="M470.81,379.48c-6.08-.75-9.08-6.24-6-11.19,5-8,10.18-15.79,15.34-23.64q31.05-47.26,62.12-94.51c2.5-3.81,6.84-5.13,10.36-3s4.19,6.62,1.39,10.93c-6.62,10.18-13.39,20.28-20.09,30.42Q510.66,323.74,487.37,359c-3.59,5.43-7,11-10.91,16.2C475.12,377,472.72,378.08,470.81,379.48Z"/><path d="M389.71,279.42q0,32.54,0,65.08a29.24,29.24,0,0,1-.07,3.38,7.35,7.35,0,0,1-7.22,6.39,7.08,7.08,0,0,1-6.69-6,33,33,0,0,1-.21-4.87q0-64.91,0-129.79a15.9,15.9,0,0,1,.3-3.72A7.06,7.06,0,0,1,389.7,211c.19,4.12.05,8.27.05,12.41v56.05Z"/><path d="M127.11,574.27c-4.7-.07-7.41-2.36-7.85-6-.43-3.44,1.56-6.14,5.57-7.35q34.32-10.34,68.66-20.61c7.19-2.16,14.37-4.35,21.59-6.42,4.56-1.3,8.34.45,9.54,4.18s-.91,7.35-5.51,8.74q-44,13.32-88.06,26.54C129.5,573.84,127.9,574.09,127.11,574.27Z"/><path d="M637.45,574.26c-2.64-.71-6.29-1.6-9.88-2.68q-40.5-12.21-81-24.49c-4.87-1.48-7.43-5.24-6.21-9.1s5-5.36,10-3.88q42.52,12.69,85,25.46c1.69.51,3.38,1,5.06,1.49,4,1.21,5.72,3.74,5.23,7.5C645.22,572.15,642.55,574.26,637.45,574.26Z"/><path d="M207.16,476.43c-5.55-1.18-12-2.51-18.53-4q-29.9-6.66-59.78-13.39c-3.4-.76-5.77-2.5-6.1-6.15-.45-4.87,3.22-8,8.66-7,8.37,1.6,16.66,3.56,25,5.41q25.7,5.72,51.37,11.47a25,25,0,0,1,2.55.64c3.23,1.09,5.5,4.27,5.08,7.07C214.89,473.93,211.86,476.38,207.16,476.43Z"/><path d="M556.77,476.51a6.89,6.89,0,0,1-6.91-6c-.37-3.46,1.81-6.41,5.63-7.27,9.65-2.18,19.32-4.25,29-6.4q23.28-5.16,46.55-10.37a29,29,0,0,1,3.33-.57c4.2-.47,7.09,1.48,7.82,5.24a6.63,6.63,0,0,1-5.29,7.84c-8.87,2.18-17.76,4.3-26.69,6.25-17,3.72-34,7.3-51.06,10.92C558.28,476.36,557.4,476.43,556.77,476.51Z"/><path d="M192.38,338.19c2.61,1.24,4.64,1.75,6.09,3q29.85,25,59.56,50.19c3.51,3,3.86,6.86,1.23,9.94s-6.53,3.14-10,.2q-30-25.14-59.91-50.36c-2.54-2.13-4.12-4.85-2.34-7.9C188.13,341.23,190.46,339.91,192.38,338.19Z"/><path d="M572.71,338c2,1.83,4.36,3.17,5.43,5.2,1.47,2.77.39,5.61-2.08,7.71-7.73,6.58-15.41,13.2-23.2,19.71-11.62,9.73-23.31,19.38-35,29.06a34.54,34.54,0,0,1-3,2.28c-3.58,2.38-7.19,2-9.38-.87-2.34-3.11-1.85-6.86,1.4-9.67,5.87-5.08,11.76-10.15,17.71-15.15q20.7-17.42,41.52-34.71C567.8,340.24,570,339.51,572.71,338Z"/><path d="M342.17,346.65c-.07,4.09-2.58,7-5.88,7.59s-6.46-1.47-7.81-5.15c-2.89-7.88-5.59-15.83-8.44-23.73-5.15-14.26-10.4-28.48-15.52-42.75-2.17-6,1.22-10.95,7-10.37,3.26.33,5.07,2.3,6.13,5.3q9.27,26,18.64,52c1.57,4.37,3.17,8.71,4.71,13.09C341.55,344.17,341.92,345.76,342.17,346.65Z"/><path d="M461.58,279.74c-.28,1-.6,2.77-1.19,4.4q-11.72,32.07-23.51,64.1a10.72,10.72,0,0,1-1.57,2.95c-2.36,3-5.69,3.78-8.65,2.2a6.57,6.57,0,0,1-3.19-8.32c2.37-7.12,4.89-14.19,7.44-21.25,5.47-15.18,10.91-30.37,16.61-45.46a10.81,10.81,0,0,1,4.63-5.38C456.68,270.61,461.46,273.93,461.58,279.74Z"/></svg>