<svg id="Layer_1" data-name="Layer 1" xmlns="http://www.w3.org/2000/svg" viewBox="0 0 751.57 846.24"><path d="M220.07,390.59c-3-12.94-6.8-25.57-8.84-38.48C202.1,294.48,215.5,242,249.5,194.94c33.21-45.94,77.78-75.26,133.33-87.42,6.65-1.45,13.46-2.13,20.21-3,4.81-.66,9,.31,11.29,5.2a11.49,11.49,0,0,1-3,13.2c-22.54,21-36.57,46.9-43,76.71-8.42,38.86-2.64,76.25,15.05,111.57,21,42,53.39,71.83,98.05,87.36,31.3,10.89,62.95,11.54,94.57,1,5.89-1.95,12-3.92,16.65,1.54,4.85,5.63,1.94,11.39-1,17.09-9.49,18.25-22.45,33.71-38.25,48a25.15,25.15,0,0,0,3.21.12c61.26-7.22,117.17,33.12,127.5,93.72,7.16,42-7.87,76.56-41.13,103-22.25,17.66-48,25-76.25,25q-170.31-.19-340.62,0c-23.42,0-46.26-2.36-67.81-11.79-49.48-21.66-82.42-57.82-92-111.79-8.51-48.23,6.37-90.24,40.43-125.1,29.79-30.49,66.35-46.56,109-48.37,1.33-.06,2.66-.12,4-.24C220.08,390.7,220.35,390.43,220.07,390.59Zm81.57,45c-1.28-.85-2.89-2-4.59-3.06-53.68-32.64-120.2-27-167.52,14.46-48.46,42.42-58.6,113.79-19.87,165.25,26.34,35,61.74,54.14,105.68,54.34,114.22.52,228.44.17,342.66.13,7.15,0,14.37.28,21.44-.55,31.71-3.76,57-18.67,73-46.46,26.45-46.16,4.87-103.32-43.71-125-30.18-13.44-60.4-10.16-90.12,2.43-3.83,1.62-7.54,3.55-11.46,4.91-1.27.44-3.64,0-4.36-.94s-.26-3,.14-4.5a6.94,6.94,0,0,1,2-2.81c8.64-8.42,17.32-16.8,26.35-25.55.29.82.26.46.07.24-29.5-36.06-67.29-55.95-114.08-56.87-46.52-.93-86.17,15.8-118.59,49.26-5.31,5.48-9.85,11.71-15.05,17.31-1.21,1.3-3.68,1.41-5.57,2.07-.39-1.78-1.52-3.8-1-5.29,1.52-4.54,3.07-9.27,5.68-13.21C288.56,453,295.08,444.57,301.64,435.58Zm73.54-304.09c-1.38.26-2,.32-2.64.5-42.43,13-77.25,37-103.31,72.91Q207.84,289.46,243,388.29c1,2.84,2.17,4,5.32,4.6,24.54,4.31,47.54,12.57,67.61,27.78,2.57,1.95,4.23,1.91,6.89.11a160.92,160.92,0,0,1,78.65-27.53c7.16-.57,14.4-.09,21.61-.09C339.93,329.67,316.61,212.74,375.18,131.49Zm187,294.71-44.94,2.05,22.44,21.13Z"/></svg>