<svg id="Layer_1" data-name="Layer 1" xmlns="http://www.w3.org/2000/svg" viewBox="0 0 751.57 846.24"><path d="M256.58,247.94c-7.77,14.52-14.83,27.94-22.2,41.18-.92,1.67-3.35,2.64-5.24,3.61Q178,318.92,126.74,345c-.7.35-1.38.73-2.8,1.49,5.84,3.19,11.07,6,16.28,8.91q61.54,34,123.08,67.94,56.71,31.29,113.52,62.4a7.57,7.57,0,0,0,6.18.09q47.21-25.67,94.2-51.67,76.08-41.91,152.15-83.84c1.87-1,3.68-2.19,6.22-3.71-6.28-3.24-12-6.22-17.72-9.15q-44.72-22.82-89.42-45.68a10.41,10.41,0,0,1-4.21-3.92c-7-12.79-13.7-25.68-21.21-39.86,4.44,2.32,7.73,4,11,5.75C566.44,280.7,618.66,308,671.4,334.22c9.63,4.8,12.43,9.91,12.38,20.21-.43,95.83-.33,191.66-.25,287.49,0,3.86-1.15,5.89-4.56,7.78Q575.74,706.88,472.66,764.34c-30,16.69-59.83,33.6-89.84,50.23a7.5,7.5,0,0,1-6.22,0q-97-53.88-193.88-108Q131,677.7,79.07,649.09c-2.9-1.6-3.35-3.58-3.35-6.47q0-117.6-.09-235.21c0-20.94.1-41.88,0-62.82,0-2.81.68-4.48,3.4-5.86q61.32-31.14,122.53-62.53C219.47,267.06,237.32,257.85,256.58,247.94Zm400.64,152.8c-2.21,1.09-3.71,1.76-5.15,2.55l-106.46,58.6q-81.37,44.81-162.83,89.47c-1.64.9-4.81.37-6.64-.63Q306.9,513,237.83,475q-51.51-28.28-103-56.59l-32.7-18c0,14.87.46,28.89-.19,42.87-.32,6.92,2.25,10.18,8.06,13.42,46,25.69,91.89,51.73,137.77,77.7q64.46,36.49,128.92,72.95a6.92,6.92,0,0,0,5.74.27Q430.83,580.5,479,553q56.12-31.85,112.23-63.68c21-11.88,42-23.66,62.91-35.65a6.39,6.39,0,0,0,2.93-4.45C657.3,433.32,657.22,417.41,657.22,400.74Z"/><path d="M233.11,338.69,379.77,58.55,526.64,339.61c-4.3-2.17-7.34-3.63-10.33-5.21C474.17,312.07,431.91,290,390,267.19c-7.61-4.14-13.18-3.76-20.53.2-45.08,24.27-90.42,48.06-135.67,72ZM379.6,116.58l-1.08-.14c-28.39,54.24-56.78,108.48-85.79,163.93,28.41-15.16,55.51-29.7,82.73-44,3.16-1.67,4.14-3.55,4.13-7-.08-35.49,0-71,0-106.49C379.61,120.78,379.6,118.68,379.6,116.58Z"/></svg>