<svg id="Layer_1" data-name="Layer 1" xmlns="http://www.w3.org/2000/svg" viewBox="0 0 751.57 846.24"><path d="M302.33,640.65c-21.57-3.61-42.18-6.38-62.46-10.69-14.24-3-28.08-8-42-12.48a28.48,28.48,0,0,1-9.63-6.07c-5.58-5-5.28-11.68,1.21-15.39a82,82,0,0,1,18.82-7.67c12.66-3.47,25.56-6.05,38.3-9.24a41.65,41.65,0,0,0,10.17-4c5.43-3.06,5.69-7,.38-10.24-4.94-3-10.24-5.83-15.77-7.29-25.55-6.73-51.28-12.76-76.84-19.43-13.65-3.56-27.16-7.71-40.6-12a28,28,0,0,1-9.26-5.72c-4.1-3.53-4-7.91.56-10.84a34.11,34.11,0,0,1,12.26-5.21c16.39-2.73,32.8-5.8,49.33-7,83.13-6.18,166.43-4.31,249.67-4,49.1.19,98.21,2.08,147.27,4.18,17,.73,33.93,4.31,50.85,6.84a24.27,24.27,0,0,1,8.79,3.38c1.76,1.07,3.64,3.35,3.77,5.21.1,1.44-2.17,3.89-3.86,4.44-6.92,2.26-13.92,4.82-21.08,5.72-31.87,4-63.83,7.16-95.7,11.13-32.17,4-64.28,8.53-96.39,13-3.07.43-5.94,2.19-8.9,3.34l0,1.87c2.93,1.23,5.77,2.82,8.81,3.63,17.84,4.73,35.89,8.75,53.55,14.06,12.84,3.87,25.23,9.23,37.7,14.22a29.07,29.07,0,0,1,7.81,5.3c7.6,6.6,7.73,14,.36,20.92-8.57,8-19.15,12.65-29.93,16.57-17.34,6.29-34.92,11.94-52.37,17.93a40.61,40.61,0,0,0-7.28,3.25c-3.73,2.19-3.93,4.82-.36,7.35a30.28,30.28,0,0,0,8.39,4.29c25.44,7.79,51,15.3,76.39,23.11q14.3,4.38,28.26,9.79c2.41.94,4.06,3.82,6.06,5.81-2.13,1.92-4,4.88-6.45,5.56-8.63,2.36-17.47,4-26.26,5.78-28.36,5.71-56.75,11.24-85.08,17.11a61.53,61.53,0,0,0-14.51,5.21c-7.18,3.53-7.55,8.36-1.88,13.85,1.23,1.2,2.65,4.24,2.14,4.82-1.49,1.7-3.92,3.63-5.95,3.6-6.63-.09-13.48-.14-19.81-1.83-10.68-2.85-21.46-6-31.38-10.76-9.5-4.54-9.4-12.3,0-17,8.37-4.22,17.62-6.76,26.56-9.79,5.66-1.91,11.56-3.11,17.17-5.16,1.9-.69,4.62-3.13,4.46-4.49a7.47,7.47,0,0,0-4.36-5.17c-12.06-3.69-24.26-6.91-36.42-10.26-18.26-5-36.63-9.68-54.73-15.24-6.05-1.86-11.82-5.43-17-9.24-7.82-5.8-7.69-12.71-.42-19.19C296.83,644.61,299.18,643.05,302.33,640.65ZM521.21,514.71l-.06-1.26c-1.49-.06-3-.18-4.46-.19-58-.44-115.91-1.14-173.87-1.23-54.12-.09-108.25,0-162.26,4.28-3.43.27-6.83.82-10.24,1.23l0,1.32c2.86.77,5.7,1.61,8.58,2.3,19.39,4.71,38.87,9.1,58.17,14.16,16.08,4.22,32.16,8.76,46.73,17.12a50.77,50.77,0,0,1,11.47,8.67c6.37,6.68,6,12.95-.93,19-3.21,2.79-6.91,5.55-10.88,6.85-16.4,5.4-33,10.24-49.49,15.28-2.07.63-4.15,1.24-6.22,1.86v1.39c2.41.9,4.76,2.17,7.25,2.64q32.58,6.12,65.22,12c11.62,2.09,23.3,3.81,34.88,6.11,4.3.86,9.62,2,10.21,7.36.54,5-4.07,7.18-7.71,9.51-2.53,1.61-5.22,3-7.6,4.79-5.12,3.84-4.86,8.51.93,11.17a79.47,79.47,0,0,0,16.39,5.9c26.34,5.64,52.75,11,79.16,16.23,5,1,10.1,1.36,15.15,2a6.64,6.64,0,0,0-3.55-2.2c-13.11-4.28-26.35-8.25-39.31-13a96.51,96.51,0,0,1-20.1-9.76c-7.66-5-7.07-11.24.95-15.85a66.78,66.78,0,0,1,13.61-6.13c19.25-5.85,38.73-11,57.86-17.15a125.24,125.24,0,0,0,25.3-11.52c7.19-4.27,7-9.6-.18-13.78a80.31,80.31,0,0,0-20.12-8.41c-22.56-5.75-45.39-10.43-67.92-16.28a161.89,161.89,0,0,1-29.31-10.84c-6.87-3.31-7.13-9.56-.83-13.8a63.62,63.62,0,0,1,18-8.15c38.78-11,78.76-14.68,118.61-19.14C503.48,516.22,512.36,515.54,521.21,514.71Z"/><path d="M376.22,477.91q-61.44,0-122.87,0c-4.42,0-7-1.68-8.8-5.77-21-48.88-8.4-110.31,29.87-147.68,29.27-28.58,64.16-43,104.91-42.12C457.47,284,520.57,348.48,516.9,427.67a141.78,141.78,0,0,1-8.83,42.79c-2.51,6.83-3,7.25-10.48,7.25H376.22Zm-.09-13.48c37.12,0,74.25-.08,111.37.12,4.14,0,5.8-1.4,7-5.12a126.53,126.53,0,0,0,5-54.21C490.8,336.63,423,287.2,354.84,300c-40.79,7.68-71.66,29.61-90.65,66.67-15.16,29.6-17.5,60.65-6.82,92.44,1.28,3.8,3,5.46,7.4,5.44C301.89,464.34,339,464.44,376.13,464.43Z"/><path d="M638.18,437.12H560.31c-1.33,0-3.15.43-3.88-.26-1.88-1.76-4.19-3.86-4.65-6.17-.64-3.18,2-5.05,5.18-5.4a45.9,45.9,0,0,1,5-.07l153.75,0c1.49,0,3.4-.43,4.39.31,1.81,1.36,4.14,3.36,4.28,5.24s-1.83,4.29-3.53,5.66c-1.19,1-3.48.71-5.28.71Q676.87,437.16,638.18,437.12Z"/><path d="M114,425.21h76.43c1.5,0,3.34-.51,4.42.16,2,1.28,4.49,2.94,5.22,5,1.07,3-1,5.44-4.17,6.27a21.33,21.33,0,0,1-5.43.47q-76.68,0-153.36,0a25.81,25.81,0,0,1-4.49-.13c-3.34-.57-6-2.68-5.24-6,.52-2.17,3.22-4,5.27-5.56.86-.66,2.58-.23,3.91-.23H114Z"/><path d="M534,346.68c-1.65-1.35-4.22-2.43-4.8-4.18s.53-4.3,1.44-6.24c.48-1,2.06-1.6,3.22-2.2Q601,299.35,668.11,264.68c3.51-1.81,7-2.95,9.58,1.22,2,3.22.51,6.65-4.24,9.14q-37.55,19.66-75.21,39.15-29,15-58.09,29.9C538.4,345,536.52,345.63,534,346.68Z"/><path d="M78,262.31c2.71,1.17,4.42,1.78,6,2.61q64.77,33.4,129.5,66.85c1.34.69,2.69,1.33,4,2.09,4.1,2.43,5.52,5.84,3.62,9-2.43,4.08-5.81,3-9.12,1.32q-15.56-7.95-31-16-51.44-26.56-102.87-53.12c-3.45-1.77-6.06-4.19-4.71-8.17C74,265,76.49,263.75,78,262.31Z"/><path d="M381.78,172.18q0,35.43,0,70.87c0,1.66.47,3.81-.37,4.86-1.48,1.87-3.85,4.29-5.76,4.21s-3.9-2.76-5.49-4.62c-.59-.68-.2-2.25-.2-3.41q0-71.37-.05-142.74c0-6.83,1.82-9.8,5.86-9.76s6,3.2,6,9.71Q381.79,136.75,381.78,172.18Z"/><path d="M195.72,141.77c1.77-1.77,3.33-4.6,5-4.66,2.35-.07,5.71,1.25,7,3.11,6.29,9.19,12,18.76,18,28.19l58.4,93c1,1.55,2,3.09,2.83,4.7,2.27,4.22,1.76,8.15-1.41,9.64-4.06,1.91-6.58-.33-8.62-3.59q-11.93-19-23.89-38-26.68-42.46-53.36-84.93C198.29,147.12,197.32,144.87,195.72,141.77Z"/><path d="M555.52,141.81a66.57,66.57,0,0,1-2.94,6.17q-32.16,51.35-64.39,102.65c-4.33,6.9-8.67,13.79-13,20.72-3,4.79-6.35,6.23-9.62,4-3-2-3.09-5.79-.33-10.2q36.64-58.55,73.27-117.1c1.85-3,3.18-6.37,5.52-8.85a8,8,0,0,1,6.47-2.07C552.42,137.56,553.83,140.12,555.52,141.81Z"/><path d="M551,470.33c9.57-4.55,19.31-4.64,29.11-3.61,33,3.47,65.06,11.49,96.69,21.34a25,25,0,0,1,6.34,2.69C638.48,487.58,594.78,478.62,551,470.33Z"/><path d="M200.71,469.53C193.1,474,82.93,491.63,68.08,490c8.14-2.5,16.21-5.22,24.42-7.48,26-7.15,52.19-13.36,79.08-15.75,8.15-.73,16.5.68,24.75,1.24C197.71,468.15,199,468.94,200.71,469.53Z"/><path d="M515.55,299.17c-1.69-1.28-4.15-2.21-4.43-3.57-.42-2.15-.14-5.28,1.2-6.78,4-4.45,8.57-8.34,13-12.37q20.84-19,41.73-37.9c3-2.7,6.21-4.19,9.73-1.13,3,2.57,2.42,6.34-1.47,9.88q-26.77,24.32-53.7,48.47C520.07,297.14,517.94,297.85,515.55,299.17Z"/><path d="M562.24,388.28c-1.74-2-4.37-3.83-5-6.15-.93-3.5,2-5.38,5.16-6.09,8.93-2,17.9-3.74,26.81-5.76,15.4-3.49,30.77-7.12,46.15-10.7,3.68-.85,7.27-1,8.48,3.51,1.11,4.14-1.18,7-5,7.86-24.65,5.53-49.35,10.87-74,16.26a12.13,12.13,0,0,1-1.49.14Z"/><path d="M188.79,387.84c-11.87-2.6-22.27-4.84-32.66-7.16Q135,376,113.8,371.13a18.24,18.24,0,0,1-2.41-.65c-3.48-1.33-5-4.05-4.2-7.51s3.74-4.61,7-3.88c8.93,2,17.8,4.28,26.73,6.26,15.42,3.43,30.87,6.71,46.31,10.09,3.68.8,7.16,2.59,6.31,6.82C193.11,384.52,190.2,386.28,188.79,387.84Z"/><path d="M178.27,235c2.37,1.4,4.43,2.19,6,3.57q25.89,23.35,51.65,46.85c.49.45,1,.91,1.43,1.39,3.73,3.91,4.37,7.39,1.86,10.08s-5.84,2-10-1.75q-26.39-23.93-52.85-47.77c-2.53-2.28-4.49-4.84-2.8-8.19C174.4,237.48,176.51,236.46,178.27,235Z"/><path d="M454,169.07c-.68,3.22-.94,5-1.45,6.78Q442.78,209,432.88,242.2c-1.46,4.87-5.18,6.86-8.49,4.79-3.48-2.18-3.22-5.47-2.24-8.87q6.06-21,12.14-42.1,3.9-13.4,8-26.72c1-3.29,3.6-5.24,6.81-4.33C451.17,165.55,452.73,167.94,454,169.07Z"/><path d="M330.85,242.26c-1.8,1.78-3.31,4.46-5.45,5.14-4,1.26-6.13-1.77-7.15-5.21-2.84-9.57-5.48-19.19-8.24-28.78-3.77-13.1-7.52-26.21-11.44-39.26-1.17-3.93-1.47-7.35,3-9.13,3.58-1.41,6.74.91,8.18,5.83q9.78,33.51,19.53,67c.32,1.1.48,2.26.72,3.39C330.3,241.61,330.57,241.94,330.85,242.26Z"/></svg>