<svg id="Layer_1" data-name="Layer 1" xmlns="http://www.w3.org/2000/svg" viewBox="0 0 751.57 846.24"><path d="M521.47,238.27c7.49-7.05,15.5-13.48,14.14-25.49-.58-5.08.17-10.44,1.1-15.53,1.15-6.33,5.85-9.67,11.74-11.46,3.3-1,5.74.2,6.58,3.45,5.36,20.74,12.22,41.26,9.89,63.22-.95,8.88-3.47,16.73-10.32,23.28-10.47,10-20.08,20.91-30.36,31.13-5.47,5.45-6.81,12.66-9.34,19.35-.54,1.42.84,3.76,1.7,5.49,8.7,17.47,16,35.44,20.48,54.49a16.09,16.09,0,0,1-2.62,14c-15,21.63-33.28,40.39-51.56,59.11-11.25,11.53-23.09,22.48-34.48,33.86-14.53,14.52-32.19,18.55-51.85,15.78-9.13-1.29-18.18-3.15-27.75-4.84.67,8.05,1,16.22,2.1,24.3,3.55,26.86,7.7,53.65,10.87,80.56,1.13,9.53,5,13.71,14.47,16.35,44.11,12.28,87.21,27.58,128.8,46.87,14.53,6.74,28.36,14.69,40.35,25.51,11.71,10.58,18,23.5,17.41,39.49-.53,13.68-.8,27.37-1.72,41-.73,10.73-6.54,17.82-17.4,19.7q-28.94,5-58,9.46c-25.41,4-50.9,1.94-76.36.56-19-1-38-2.74-57.08-3.43-33.12-1.2-66.27-2.44-99.41-2.58-42.81-.19-85.62.84-128.44,1-15.55.08-31.12-.42-46.65-1.16-13.59-.66-17.55-7.57-12.14-20,3.19-7.3,8-12.09,16.62-12.43A100.27,100.27,0,0,0,118.2,767a60.92,60.92,0,0,0,32.37-17.68c7.52-7.85,14.61-16.12,21.89-24.21l1.68,1.34c-.9-1.29-1.76-2.62-2.7-3.88-13.76-18.42-17.14-38.94-12.07-61a17.7,17.7,0,0,0-.79-11.63c-4.63-10.87-2.83-22-1.1-33.28,5.57-36.33,11.45-72.63,16.07-109.08,2.25-17.79,2.22-35.89,2.79-53.86.79-24.68.3-49.43,1.94-74.05,2.29-34.49,13.39-66.14,35.25-93.43,3.07-3.83,7.08-6.9,10.58-10.39.89-.89,2.06-2,2.18-3.11.76-7.05,1.3-14.12,1.84-21.19.19-2.46-.67-3.89-3.55-4.19-5.61-.59-9.11-4.34-11.49-9.08-1.14-2.26-2.23-3.41-5.05-3.42-6.19,0-10.25-4.09-11.76-12.11-.63-3.33-1.86-4.58-5.11-5.26-5.47-1.13-9.54-4.54-12.59-9.31-7.54-11.78-8.73-42.25,5.72-54.49,2.1-1.78.94-3.3.23-5-4.29-10-5.76-20.13-1.52-30.48a29.25,29.25,0,0,1,4.61-7.94c4.34-5,9-9.78,13.66-14.54C209.66,87.16,220.5,84.5,231.87,83a16.56,16.56,0,0,0,6.88-2.53c16.76-11.28,35-13.73,54.25-8.87,8.6,2.17,14.94,7.24,15.18,17.33,0,1.16,1.38,2.48,2.41,3.39,8.67,7.58,9.94,14.53,4,24.48-1.26,2.1-.94,3.55,0,5.5,3.05,6.42,6.28,12.78,8.71,19.43,1.13,3.08,1,6.83.61,10.18-.28,2.48.17,4,2,5.54,5.87,4.91,11.65,9.92,17.47,14.89,6.8,5.79,6.86,9.6.28,15.85-.87.83-1.72,1.69-2.68,2.62,2.43,4.95,6.56,9.75,1.6,15.28,5,4.62,9.91,8.77,14.29,13.45a73.33,73.33,0,0,1,9.54,12.4c6.41,10.73.39,26-11.44,30.15a28.13,28.13,0,0,0-7,3.69,18.3,18.3,0,0,1-16.38,3c-13.51-3.69-13.53-3.69-18.34,9.32-2.05,5.53-3.88,11.15-6.11,16.61-1,2.48-.41,3.86,1.55,5.38a75.75,75.75,0,0,1,8.86,7.59c4.49,4.76,9.14,9.5,12.8,14.87a109.2,109.2,0,0,0,25.23,26.88C371,360.87,386.51,372.18,402,383.52a7.31,7.31,0,0,0,9.67-1c12.49-13.8,22.42-29.46,32.18-45.2,7-11.28,13.38-22.95,20.39-34.23,1.89-3,5.08-5.23,7.61-7.87,4.77-5,9.64-9.89,9.13-17.59a90.65,90.65,0,0,0-.82-9.62c-1.51-8.61,1-16.17,5.62-23.26,7.58-11.6,14.15-23.7,18.71-36.87,2-5.66,7.41-6.46,11.29-1.86,6.39,7.59,9.58,16.08,6.94,26.12C522.19,234.14,521.88,236.22,521.47,238.27ZM342.7,630.12l-.06-1.33c8.4-6.19,18.76-5.89,28.58-7.74-.19-1.27-.32-2.18-.45-3.1-2.79-19.24-5.9-38.44-8.28-57.74s-4-38.44-5.89-57.68c-.26-2.75-1.33-4.13-3.93-5.2-15.73-6.52-31.43-13.12-47-20a210.54,210.54,0,0,1-18.95-9.76c-1.33-.76-1.8-3.06-2.66-4.65,1.72-.68,3.41-1.82,5.16-1.91s3.34.85,5,1.47c16.52,6.36,33,12.82,49.56,19.1,15.79,6,31.44,12.22,48.41,14.63,19.15,2.72,36,.15,50.11-14.76,20.28-21.45,41.42-42.1,61.84-63.43,7.1-7.41,13.16-15.83,19.85-24-26.19-21.72-39.49-51-52.45-81.33-1.25,2-2.1,3.32-2.89,4.67-5.21,8.92-10.3,17.92-15.64,26.77-9.91,16.44-20.12,32.67-33,47.05-3.6,4-7.27,6.5-12.83,5.26-3.56-.8-5.86.91-8.2,3.62a108.66,108.66,0,0,1-12.06,11.73c-1.19,1-3.62.58-5.48.8.19-1.8-.16-3.91.67-5.34,2.48-4.29,5.37-8.35,8.21-12.42,2.12-3,1.65-5.11-1.49-7.26-10.4-7.13-20.75-14.36-30.92-21.82-13.34-9.79-26.46-20-35.34-34.28a73,73,0,0,0-17.55-19.14c-4.75-3.72-9.36-7.64-13.91-11.61-1.88-1.65-3.29-4.07.31-5.11,3.12-.9,4.21-3,5.19-5.55,3.83-9.88,7.68-19.75,11.38-29.68a6.08,6.08,0,0,1,5.3-4.19,39.74,39.74,0,0,1,19.87,1.41c3.4,1.17,6.08.42,9-1.68,2.38-1.73,5.44-2.51,8.11-3.89,1.6-.83,3.45-1.69,4.46-3.07,4-5.49,3.78-9.48-.42-15A99.55,99.55,0,0,0,331,212.41c-4.55-3.13-4.75-5.87-1.17-10l2.56-2.92c-5.82-11-5.82-11,2.69-19.38-6.6-5.71-13.11-11.5-19.8-17.09-3.81-3.18-4.6-6.7-3.22-11.44a13.67,13.67,0,0,0-.31-8.42c-2.93-7-6.46-13.84-9.91-20.66-1.56-3.07-1.76-5.62.72-8.43,6.8-7.68,6.18-10.43-3-15-.36-.18-.74-.33-1.09-.52-2.7-1.49-3.71-3.61-2.89-6.71,1.65-6.3.72-8.22-5.61-9.72-14.58-3.46-28.85-1.86-41.52,6a49.08,49.08,0,0,1-19.64,7.08c-10.86,1.55-19.93,6.24-25,16.74a6.69,6.69,0,0,1-2.5,2.48c-7.49,4.62-10.61,10.91-8.79,19.65,1,4.81,3,9.43,4.68,14.06,2.19,5.91,1.45,9.66-3.41,13s-7.1,7.94-8.2,13.36a44.79,44.79,0,0,0,.68,21.52c2.35,8.19,5.05,10.39,13.56,11,4.38.3,6.13,2.12,6.47,6.6.13,1.73.35,3.46.58,5.18.49,3.7,2.2,5.61,6.27,4.52s6.68.79,8.27,4.49c.79,1.85,1.41,3.93,2.71,5.35a11,11,0,0,0,5.37,3.46c5.93,1.12,8.4,2.49,8.88,8.5a179.28,179.28,0,0,1,.06,24.42c-.2,3.74.66,5.44,4.17,6.85a203.89,203.89,0,0,1,18.47,8.79c1.74.92,2.91,2.95,4.34,4.46-2,1-3.34,1.18-4.57.91-5.36-1.2-10.64-2.92-16-3.76-17.09-2.62-14-3.8-24.46,9.57-14.64,18.77-22.62,40.64-27,63.89-4.8,25.36-4.52,51-4.76,76.65-.21,22.54.39,45.25-2.1,67.58-4.2,37.71-10.53,75.19-16,112.75-1.75,12-3.11,23.79,4.46,34.57a4.33,4.33,0,0,1,.17,3.71c-4.5,8.9-5,18.26-3.49,27.88,2,12.93,5.53,25.19,14.63,35.11,7,7.58,16.12,11.64,25.61,14.6,11.37,3.55,23,6.19,34.55,9.29a40.26,40.26,0,0,1,4.75,1.91c-8.45,4.67-17.09,4.78-25.8,3.87-12.07-1.28-23.15-5.77-33.84-11.16-3.71-1.88-6.6-1.64-9.46,1-6.3,5.84-12.78,11.49-18.75,17.65-12.74,13.13-27.72,21.86-45.93,24.76-5.16.82-10.32,1.74-15.4,2.94-2.36.55-5.06,1.45-4.2,5.51,55.4,1.89,110.74,1.17,166.53-.53-10.46-4.29-20.4-8.25-30.22-12.47-2.25-1-5.86-1.69-4.89-5.14.23-.82,4.56-1.16,6.77-.68a910.36,910.36,0,0,0,106.9,16.52q32.83,3.24,65.77,5.63c20.87,1.48,41.78,2.82,62.69,3.38,25.08.68,49.72-4,74.37-7.87,12.49-2,19.27-9.47,20.93-22.2,1.1-8.37,1.31-16.85,1.8-25.29.93-16.11-4.61-29.56-18.16-38.51a275.63,275.63,0,0,0-34.49-19.72c-30.16-14.17-61.89-24.31-93.37-35.06-24.72-8.45-49.6-15.88-76.06-16A15.67,15.67,0,0,1,342.7,630.12ZM494,337.86c5.6-7.66,10.57-14.82,13-23.31a29.57,29.57,0,0,1,7.22-12.79c10.48-11,20.68-22.2,31.44-32.88a25.26,25.26,0,0,0,7.82-16.21c.37-3.87.81-7.75.88-11.63.24-13.84-2.82-27.16-6.64-40.34-.07-.25-.59-.37-1.7-1,0,5.35.35,10.18-.09,14.92s-.35,10.52-2.84,14.27c-5,7.51-11.35,14.18-17.6,20.77-3.09,3.27-7.56,5.47-12,2.79-4.24-2.54-3.51-7.23-2.86-11.34.77-4.89,2.29-9.68,2.88-14.58.33-2.77-.56-5.69-.87-8.24-5.67,10.5-10.78,20.81-16.7,30.64-3.94,6.54-5.91,13.13-4.68,20.64,2,12.27-.32,23.22-9.73,32-1.85,1.72-2,3.59-1,5.79,2.66,6.3,5.17,12.66,7.91,18.93C489.93,330,491.87,333.63,494,337.86Zm29.73,42.67c-2.75-15.28-8.54-29.12-15.88-43-2.23,3.3-4.05,6.23-6.12,9a3.38,3.38,0,0,0-.12,4.61c3.35,4.85,6.27,10,9.81,14.72C515.21,370.94,519.56,375.65,523.68,380.53Z"/></svg>