<svg id="Layer_1" data-name="Layer 1" xmlns="http://www.w3.org/2000/svg" viewBox="0 0 751.57 846.24"><path d="M495.45,248.25c-8.33,2.75-16.13,5.46-24,7.8-1.09.32-3.09-.83-4-1.87a201.51,201.51,0,0,0-39.25-34c-33.93-22.39-71-35.83-111.66-39.13-.76-.06-1.53,0-2.9,0v35.88H293.14V180.68c-53.48,4.1-99.42,24.19-139.19,58.88-49.06,42.77-71.37,101.63-73.66,149.68h38.13V410H79.84c2.52,49.08,19.16,92.05,50.49,129.18C176.66,594.11,238.76,620.47,293,623V583.71h20.69v39.87c34.79-1,67.64-8,99.77-22.53-3.52,6.38-8.59,9.52-13.37,13-4.31,3.09-9.1,5.71-12.8,9.41-4,3.94-6.83,9-10.34,13.38-1,1.27-2.44,2.72-3.91,3-62.81,13.59-123.94,9.72-182.17-19.16C143.31,597.09,106.08,562,81.1,515.18,47,451.18,43.78,384.64,69.22,316.92c19.13-50.89,53-90.28,98.58-119.14,47.81-30.25,100.34-44.67,157-39.12,57.55,5.64,108.76,27,150.93,67.66,4,3.87,7.72,8,11.46,12.16C489.92,241.55,492.51,244.78,495.45,248.25Z"/><path d="M449,593.79c-5.76-12.44-5.81-25.47-7.68-38.09-4-27.05-6.79-54.23-6.81-81.63,0-16.49,1.26-32.86,5.68-48.85a66.62,66.62,0,0,1,10.93-23A32.07,32.07,0,0,1,467,391c2.7-.87,4.25-2.18,4.63-4.93a7,7,0,0,1,.44-1.89c2.33-5.19,1-9.24-2.63-13.65-6.62-8.07-9.19-18.12-11.78-28-.48-1.85-1.87-3.45-2.83-5.17s-2.34-3.26-2.7-5.06q-3.73-18.23-7-36.53c-.69-3.82,1.35-6.59,4.71-8.11,10.6-4.8,21.06-10,31.95-14,14.33-5.28,29-9.6,44.31-11.24,8.21-.88,11.4.79,14.9,8.15,4.46,9.35,9.3,18.86,9.49,29.34.14,7.38,2.33,13.63,5.08,20.17,1.7,4.06,1.62,8.83,2.62,13.22a37,37,0,0,0,2.92,9c1.91,3.65,4.73,6.82,6.74,10.43,4.35,7.76,2.58,12-5.77,14.71-1.33.43-2.67.82-4,1.22,2.85,21.88-6.52,34.15-32.53,30.32-1.77,5.41-1.26,7.61,2.86,11,9,7.48,14.28,17.61,19.56,27.73,4.6,8.83,9.31,17.6,13.91,26.43,1.88,3.59,4,4.19,7.59,1.85,9.78-6.33,19.81-12.28,29.73-18.39,3.82-2.35,7.78-3.51,12.5-1.37,0-2.46.16-4.61,0-6.72a22.94,22.94,0,0,1,5.66-17.62q7-8.1,14-16.12c2.27-2.57,5.09-4.32,8.59-2.8,3.33,1.45,4.47,4.5,4.55,8,.06,2.53,0,5.06,0,8.13,3.78-2.34,6.06-5.07,6.51-9.09s.6-8,1.26-12c1.16-7,4.73-12.56,11.26-15.81,3.83-1.92,7-1,8.06,3,3.52,13.8,6.84,27.71,5.13,42.13-.9,7.57-5.39,13.37-10.76,18.43-6.12,5.78-12.61,11.17-18.55,17.13-4.26,4.28-7.91,9.18-11.78,13.85-1.31,1.57-1.27,2.91.22,4.7,8.62,10.33,8.54,13.05-1,22.37a204.14,204.14,0,0,1-53.59,38.1c-1.87.9-2.55,2-2,3.87.06.25,0,.52.12.77,1,4.14.9,9.38,3.45,12.09,2.29,2.42,7.49,2.33,11.47,2.88,21,2.92,41.93,6.69,62.28,12.93,10.28,3.16,20.38,6.82,29.4,12.92,8.54,5.78,13.46,13.57,13.16,24.07a81.17,81.17,0,0,1-1.4,15c-2.56,11.76-11,17.94-21.83,21.53-12.14,4-24.72,5.69-37.4,6.39-37.86,2.09-75.61-1-113.39-2.72-15.65-.69-31.31-1.41-47-1.69-16.45-.29-32.91,0-49.36-.1-8.52-.07-17.05-.31-25.54-1-7.12-.57-11.53-4.15-12.44-9.23-.88-4.86.57-9.3,4.4-12.16a66.92,66.92,0,0,1,14-8.16,62.54,62.54,0,0,0,20.66-13.46C435.11,600.41,440.71,595.38,449,593.79Zm-44.23,41.05c5.73,3,11.07,2.86,16.28,2.83,18.27-.1,36.53-.38,54.8-.6,1.33,0,2.66-.13,4.3-.21-9.36-13.82-9.92-15.33-7.39-19.86a23.72,23.72,0,0,1,2.14,2.77c4.24,7.65,11.07,11.88,19.18,14.13a89.9,89.9,0,0,0,16.31,3.39c21.93,1.9,43.87,4.06,65.85,4.9,23.8.91,47.66.66,71.48.49a53.41,53.41,0,0,0,23.72-5.25c14.85-7.42,18.74-28.17,7.37-40-5.73-6-13.33-9-20.92-11.53C626,575.15,593,570.47,559.55,568c-2.9-.22-5.78-.72-8.67-1.09l-.09-1.13c1.27-.48,2.5-1.07,3.8-1.43,3.74-1,7.58-1.79,11.2-3.13,1.4-.52,3.19-2.28,3.27-3.58.24-3.66-.31-7.38-.54-11a7.38,7.38,0,0,0-1.74-.19c-14.84,3.61-27.95-.72-40-9.08-20-13.9-35.91-32-50.43-51.33a29.22,29.22,0,0,1-2.24-4.17l1-1c2.79,1.94,5.76,3.67,8.33,5.86,7.1,6.05,14,12.33,21,18.47,11.34,9.9,23.07,19.23,36.54,26.2,8.82,4.56,17.88,5.63,26.94,1.59a240.84,240.84,0,0,0,25.87-13.17c13-7.79,24.49-17.69,34.95-27.44l-25.08-33.83c-.92.51-2.43,1.23-3.82,2.13-8.72,5.6-17.29,11.44-26.14,16.81-7.73,4.69-15.71,9-23.74,13.16-2,1-4.64.82-7,1.18l-.47-1.44c1.1-1,2.16-2.07,3.31-3a70.21,70.21,0,0,0,6.27-5.19c.85-.89,1.5-2.94,1-3.93-8.07-17.78-15.37-36-27.09-51.87-9.35-12.67-21.08-22-36.72-25.8s-27,1.83-33,16.3a79.32,79.32,0,0,0-6.22,28.3c-.41,18-.65,36,0,54a422,422,0,0,0,10.39,79.61c1.88,8.14,5.8,11.77,13.08,14.44a302,302,0,0,0,46.7,13,39.56,39.56,0,0,1,5.38,1.81c-.07.45-.15.9-.22,1.35a53.53,53.53,0,0,1-6.32,1.17A133.7,133.7,0,0,1,478,606.54c-3.52-.86-7.65-.37-10.65-2-9.09-5-16.29-3.35-22.76,3.68A67,67,0,0,1,418.1,626a55.36,55.36,0,0,0-9.21,5C407.53,631.77,406.5,633.14,404.72,634.84ZM515.31,400.07c.33-3.61,1.45-7.66-2.84-10.48-.67-.44-1.35-2.13-1.05-2.56a4.84,4.84,0,0,1,2.84-1.56,12.12,12.12,0,0,1,3.06.32c5.8.41,11.6,1.1,17.41,1.11,6.59,0,9.92-2.95,11.45-9.41a67.78,67.78,0,0,0,1.58-8.79c.55-5.32,2.61-9.39,8-11.22,2.46-.84,2.63-2.47,1.31-4.55-2.08-3.27-4-6.69-6.14-9.9A18.41,18.41,0,0,1,547.59,331c.39-6-1.67-11.4-4.58-16.6-1.76-3.13-3.55-3.94-7.12-2.6-13.07,4.92-26.18,9.78-39.46,14.07-9.06,2.92-18.44,4.87-27.9,7.3,1.24,17.51,8.6,32.35,20.93,46.08h-7.11c-.28,3.68-.54,7.1-.73,9.55Zm24.16-100.13c-2.82-8.05-5.63-15.92-8.3-23.84-1-3-2.76-3.8-5.9-3.2-20.43,3.92-40,10.45-59.14,18.54-8.8,3.74-8.78,3.86-7.33,13.23,1,6.46,2.11,12.91,3.22,19.7C488.8,319.33,513.33,309.13,539.47,299.94Zm85.44,170.22c7-6.24,13.82-12,20.15-18.24s12.32-12.92,18.06-19.74a14.07,14.07,0,0,0,3.17-8.09c.15-9.29-.33-18.59-.66-27.88a10.67,10.67,0,0,0-1.08-3l-1.1-.13c-.87,1.76-2.09,3.44-2.52,5.3a52.59,52.59,0,0,0-1.34,9.6c-.59,13.4-9.28,18.87-22.69,22.93-3,.9-4.09-.54-3.13-3.68s2.33-6,3.21-9.15a30.82,30.82,0,0,0,.62-5.64l-1.26-.37c-3.19,4-6.21,8.17-9.6,12-5.53,6.25-7.77,13.35-6.15,21.54a9.2,9.2,0,0,1-2.66,8.82c-.84.88-1.27,3.25-.69,4.22C619.86,463.07,622.9,467.21,624.91,470.16Z"/><path d="M149.83,410.15V389.93h5q59.46.33,118.92.75c3.42,0,5.31-.72,6.56-4.22,1.9-5.31,5.94-9.13,11-11.55,2.63-1.26,3.38-2.85,3.37-5.67q-.15-50.14-.07-100.27v-4.52h18.73v4.76q0,49.56-.09,99.11c0,3.07.73,4.69,3.82,6,9.93,4.31,16.4,15.82,15.24,26.14-1.47,13.23-9.31,22.44-21.57,25.37-11.06,2.64-23.35-2.22-29.23-12.12-1.84-3.1-3.85-3.76-7.11-3.75q-60.24.19-120.48.15Z"/></svg>