<svg xmlns="http://www.w3.org/2000/svg" xml:space="preserve" width="655.359" height="655.359" style="shape-rendering:geometricPrecision;text-rendering:geometricPrecision;image-rendering:optimizeQuality;fill-rule:evenodd;clip-rule:evenodd" viewBox="0 0 6.827 6.827" id="praying">
  <g id="Layer_x0020_1">
    <g id="_250217504">
      <path id="_250217672" d="M1.81 1.05h3.207a.08.08 0 0 1 .08.08v4.566a.08.08 0 0 1-.08.08H1.81a.08.08 0 0 1-.08-.08V1.13a.08.08 0 0 1 .08-.08zm3.127.16H1.89v4.406h3.047V1.21z" style="fill:#000;fill-rule:nonzero"></path>
      <path id="_250217528" d="M2.24 2.473a.987.987 0 0 1 .261-.417c.118-.115.266-.207.433-.268a.798.798 0 0 1 .196-.156c.08-.045.17-.08.266-.101a.08.08 0 0 1 .038 0 .943.943 0 0 1 .263.101.798.798 0 0 1 .196.156c.167.061.315.153.433.268.123.12.214.263.261.422a.08.08 0 0 1 .004.03l-.04 2.71h.001a.08.08 0 0 1-.08.08H2.355a.08.08 0 0 1-.08-.086l-.039-2.71c0-.01.001-.02.005-.029zm.372-.303a.829.829 0 0 0-.216.343l.037 2.625h1.96l.038-2.625a.829.829 0 0 0-.217-.343 1.068 1.068 0 0 0-.388-.237.08.08 0 0 1-.04-.025.63.63 0 0 0-.168-.137.78.78 0 0 0-.205-.08.78.78 0 0 0-.204.08.633.633 0 0 0-.165.133.08.08 0 0 1-.038.028 1.07 1.07 0 0 0-.394.238z" style="fill:#000;fill-rule:nonzero"></path>
      <path id="_250218392" d="M1.89.935a.08.08 0 0 0-.16 0v.368a.08.08 0 0 0 .16 0V.935z" style="fill:#000;fill-rule:nonzero"></path>
      <path id="_250215656" d="M2.157.935a.08.08 0 0 0-.16 0v.368a.08.08 0 0 0 .16 0V.935z" style="fill:#000;fill-rule:nonzero"></path>
      <path id="_250216448" d="M2.424.935a.08.08 0 0 0-.16 0v.368a.08.08 0 0 0 .16 0V.935z" style="fill:#000;fill-rule:nonzero"></path>
      <path id="_250216592" d="M2.692.935a.08.08 0 0 0-.16 0v.368a.08.08 0 0 0 .16 0V.935z" style="fill:#000;fill-rule:nonzero"></path>
      <path id="_250218368" d="M2.959.935a.08.08 0 0 0-.16 0v.368a.08.08 0 0 0 .16 0V.935z" style="fill:#000;fill-rule:nonzero"></path>
      <path id="_250219136" d="M3.226.935a.08.08 0 0 0-.16 0v.368a.08.08 0 0 0 .16 0V.935z" style="fill:#000;fill-rule:nonzero"></path>
      <path id="_250218680" d="M3.493.935a.08.08 0 0 0-.16 0v.368a.08.08 0 0 0 .16 0V.935z" style="fill:#000;fill-rule:nonzero"></path>
      <path id="_250218656" d="M3.76.935a.08.08 0 0 0-.16 0v.368a.08.08 0 0 0 .16 0V.935z" style="fill:#000;fill-rule:nonzero"></path>
      <path id="_250215056" d="M4.028.935a.08.08 0 0 0-.16 0v.368a.08.08 0 0 0 .16 0V.935z" style="fill:#000;fill-rule:nonzero"></path>
      <path id="_250215824" d="M4.295.935a.08.08 0 0 0-.16 0v.368a.08.08 0 0 0 .16 0V.935z" style="fill:#000;fill-rule:nonzero"></path>
      <path id="_250219496" d="M4.562.935a.08.08 0 0 0-.16 0v.368a.08.08 0 0 0 .16 0V.935z" style="fill:#000;fill-rule:nonzero"></path>
      <path id="_250215920" d="M4.83.935a.08.08 0 0 0-.16 0v.368a.08.08 0 0 0 .16 0V.935z" style="fill:#000;fill-rule:nonzero"></path>
      <path id="_250216208" d="M5.097.935a.08.08 0 0 0-.16 0v.368a.08.08 0 0 0 .16 0V.935z" style="fill:#000;fill-rule:nonzero"></path>
      <path id="_250220456" d="M1.89 5.523a.08.08 0 0 0-.16 0v.369a.08.08 0 0 0 .16 0v-.369z" style="fill:#000;fill-rule:nonzero"></path>
      <path id="_250214264" d="M2.157 5.523a.08.08 0 0 0-.16 0v.369a.08.08 0 0 0 .16 0v-.369z" style="fill:#000;fill-rule:nonzero"></path>
      <path id="_250216112" d="M2.424 5.523a.08.08 0 0 0-.16 0v.369a.08.08 0 0 0 .16 0v-.369z" style="fill:#000;fill-rule:nonzero"></path>
      <path id="_250217720" d="M2.692 5.523a.08.08 0 0 0-.16 0v.369a.08.08 0 0 0 .16 0v-.369z" style="fill:#000;fill-rule:nonzero"></path>
      <path id="_250220000" d="M2.959 5.523a.08.08 0 0 0-.16 0v.369a.08.08 0 0 0 .16 0v-.369z" style="fill:#000;fill-rule:nonzero"></path>
      <path id="_250215152" d="M3.226 5.523a.08.08 0 0 0-.16 0v.369a.08.08 0 0 0 .16 0v-.369z" style="fill:#000;fill-rule:nonzero"></path>
      <path id="_250218584" d="M3.493 5.523a.08.08 0 0 0-.16 0v.369a.08.08 0 0 0 .16 0v-.369z" style="fill:#000;fill-rule:nonzero"></path>
      <path id="_250217816" d="M3.76 5.523a.08.08 0 0 0-.16 0v.369a.08.08 0 0 0 .16 0v-.369z" style="fill:#000;fill-rule:nonzero"></path>
      <path id="_250216736" d="M4.028 5.523a.08.08 0 0 0-.16 0v.369a.08.08 0 0 0 .16 0v-.369z" style="fill:#000;fill-rule:nonzero"></path>
      <path id="_250216160" d="M4.295 5.523a.08.08 0 0 0-.16 0v.369a.08.08 0 0 0 .16 0v-.369z" style="fill:#000;fill-rule:nonzero"></path>
      <path id="_250217384" d="M4.562 5.523a.08.08 0 0 0-.16 0v.369a.08.08 0 0 0 .16 0v-.369z" style="fill:#000;fill-rule:nonzero"></path>
      <path id="_250215776" d="M4.83 5.523a.08.08 0 0 0-.16 0v.369a.08.08 0 0 0 .16 0v-.369z" style="fill:#000;fill-rule:nonzero"></path>
      <path id="_250215536" d="M5.097 5.523a.08.08 0 0 0-.16 0v.369a.08.08 0 0 0 .16 0v-.369z" style="fill:#000;fill-rule:nonzero"></path>
    </g>
  </g>
  <path d="M0 0h6.827v6.827H0z" style="fill:none"></path>
</svg>
