<svg id="Layer_1" data-name="Layer 1" xmlns="http://www.w3.org/2000/svg" viewBox="0 0 751.57 846.24"><path d="M375.44,552.43c-74.35.24-134.5-59.9-134-135.48.51-73.32,61.25-131.31,133.39-131.49,74.23-.19,134.87,59.12,135,131.94C510.05,492.52,450.65,552.19,375.44,552.43ZM372,302.66c-63.34,2-115,56.22-113.42,118.38C260.13,484.23,314,538.62,381.81,535c61.39-3.31,112.57-54.73,110.84-119.79C491,351.9,435.83,300.6,372,302.66Z"/><path d="M112.65,594.2c-2-2.15-4.64-4-5.68-6.47-1.45-3.45.5-6.32,3.77-8.21,10.09-5.81,20.14-11.68,30.21-17.52q43.8-25.43,87.61-50.82c1.15-.67,2.28-1.39,3.48-1.94,3.78-1.75,7.58-.6,9.42,2.77a7,7,0,0,1-2.68,9.87q-24.71,14.61-49.48,29Q154.77,571,120.15,590.84C118.18,592,116,592.73,112.65,594.2Z"/><path d="M515.41,507.41c3.92,2,6.78,3.34,9.48,4.92q48,28,96,56c6.31,3.68,12.69,7.25,19,11,4.45,2.62,5.76,6.6,3.6,10.4-2,3.58-5.91,4.66-10.42,2.13q-25.39-14.29-50.59-29c-23.09-13.47-46.06-27.15-69.15-40.62-3.53-2.06-5.51-4.87-3.84-8.52C510.57,511.26,513.34,509.51,515.41,507.41Z"/><path d="M130.14,448.57c-16.2.6-38.45,1.43-60.71,2.24-5.35.19-8.47-2.28-8.69-6.69s3-7.61,8.39-7.78q65.78-2.11,131.56-4.17c.67,0,1.33,0,2,0,5,.07,8.21,2.93,8.27,7.3s-2.72,6.66-8,6.83C180.72,447,158.46,447.67,130.14,448.57Z"/><path d="M615.54,434q33.68,1.13,67.35,2.26c5.06.18,8.08,3.2,8,7.68-.12,4.24-3.45,7.08-8.07,6.9-24.43-.93-48.86-1.92-73.3-2.76-20.12-.69-40.24-1.19-60.36-1.78-5.84-.17-8.54-2.28-8.54-6.71,0-4.84,3.17-7.52,9.11-7.39q32.94.75,65.87,1.6Z"/><path d="M659.68,306.92c-1,1.06-2.5,4-4.83,5q-59.11,23.89-118.43,47.3c-5.17,2.05-8.89.76-10.53-3.19-1.8-4.32,0-7.95,5.21-10q58.74-23.51,117.54-46.89C655,296.52,659.68,299.24,659.68,306.92Z"/><path d="M225.59,353.28c0,5.49-4.89,8.35-10.76,6.05q-27.62-10.8-55.17-21.78c-21.13-8.46-42.2-17.07-63.3-25.61-4-1.64-6-5.34-4.74-9.12,1.4-4.27,5.19-6,10.17-4.05,13.77,5.4,27.44,11,41.17,16.56q38.39,15.44,76.81,30.8C223.21,347.5,225.55,349.34,225.59,353.28Z"/><path d="M437.48,569.93c1.06,1,3.63,2.61,5,4.93,8.07,13.94,15.9,28,23.75,42.1q18,32.2,35.89,64.46a18.39,18.39,0,0,1,2,4c1,3.67.39,7.25-3.27,9s-7.3,1.07-9.5-2.78c-4.29-7.5-8.43-15.08-12.65-22.62q-24.46-43.69-48.94-87.4C426.4,575.66,429.43,569.79,437.48,569.93Z"/><path d="M254.63,695.55c-7.23-.12-10.23-6.33-7.18-11.92,7.87-14.43,15.86-28.81,23.85-43.17q17.82-32,35.72-64c.4-.72.81-1.45,1.24-2.16,2.58-4.26,6.26-5.61,10-3.69s4.93,6.46,2.56,10.83c-4.51,8.32-9.24,16.53-13.84,24.8-15.66,28.16-31.24,56.36-47,84.44C258.61,693,255.81,694.51,254.63,695.55Z"/><path d="M467.43,286.09c-2.57-2-5.46-3.22-6-5.07-.72-2.5-.56-6.14.83-8.21,7.39-11.05,15.29-21.76,23-32.59l45.37-63.81c3.07-4.32,7.11-5.54,10.59-3.2s4.32,7.22,1.32,11.48Q523.74,211.41,504.73,238c-10,13.93-19.89,27.87-30,41.67C473,282,470.25,283.63,467.43,286.09Z"/><path d="M291.7,277.84c-1.87,2.2-3.28,5.36-5.43,6-2.31.67-6.18-.18-7.85-1.87-3.81-3.85-6.78-8.57-10-13q-29.94-42-59.81-84.05c-3.16-4.44-3-8.91.46-11.47,3.6-2.67,8-1.46,11.38,3.21q33.7,47.28,67.36,94.6C289.17,273.05,290.15,275.14,291.7,277.84Z"/><path d="M368.42,193c0-18.47-.07-36.93.08-55.39,0-2.35.5-5.45,2-6.83s5.16-2.45,7.09-1.7c2.16.85,4,3.67,4.94,6,.83,2.19.21,4.93.21,7.42v104.8c0,1,0,2,0,3-.23,4.65-3.28,7.83-7.39,7.74-3.9-.09-6.71-3.09-6.75-7.69-.13-15.31-.14-30.61-.19-45.91C368.41,200.63,368.42,196.8,368.42,193Z"/><path d="M382.76,627c0,12.81.06,25.63,0,38.44,0,6-4.31,9.67-9.16,8.1-3.41-1.1-5-3.6-5-7.19,0-26.29-.12-52.59-.07-78.89,0-4.79,3.22-7.76,7.42-7.57s6.8,3.19,6.82,8.16c0,13,0,26,0,39Z"/><path d="M214.12,616.08c-2.15-1.9-5.16-3.29-5.57-5.24-.56-2.66-.1-6.56,1.57-8.5,7.25-8.42,15.08-16.35,22.75-24.41q14.76-15.52,29.58-31c3.38-3.54,7.53-4.13,10.5-1.44,3.22,2.91,3,7.94-.33,11.49q-26,27.46-52.11,54.91C219,613.47,216.81,614.35,214.12,616.08Z"/><path d="M482.72,542.72c2.48,1.6,4.38,2.36,5.66,3.71q26.33,27.63,52.46,55.43c3.35,3.56,3.27,8.3.19,11.15s-7.34,2.33-10.9-1.46q-25.8-27.43-51.63-54.81c-2.38-2.52-3.78-5.47-1.8-8.53C478.07,546.1,480.51,544.68,482.72,542.72Z"/><path d="M538,466.71c.87.29,2.12.68,3.37,1.11l66.75,23.09a19.65,19.65,0,0,1,4.63,1.77c3.22,2.15,4.7,5.18,3.1,9s-4.64,5.39-8.48,4.06Q571.14,493.28,535,480.53c-3.57-1.26-5.41-3.83-4.51-7.75C531.36,469.11,533.84,467.19,538,466.71Z"/><path d="M140,506.7c-1.49-1.82-4-3.67-4.73-6.07-1.25-4.17.73-7.37,5.09-8.86,11.45-3.92,22.88-7.93,34.34-11.85q17.67-6,35.36-12c5.05-1.7,8.64-.22,10,4.1s-.27,7.14-5.37,8.92q-34.78,12.1-69.59,24.15C143.84,505.54,142.57,505.9,140,506.7Z"/><path d="M252.25,311.51c-2,2.33-3.25,5.09-5.29,5.89s-5.54.53-7.26-.78c-12.95-9.86-25.64-20.06-38.37-30.21-6-4.76-11.92-9.56-17.77-14.47-4-3.33-4.56-7.54-1.82-10.88s6.43-3.56,10.53-.29q27.67,22.05,55.19,44.31C249.24,306.53,250.31,308.86,252.25,311.51Z"/><path d="M571.77,265.78c-1.73,2.47-2.68,4.72-4.35,6.07q-28,22.53-56.16,44.78a6.62,6.62,0,0,1-9.74-1c-2.75-3.34-2.22-7.27,1.66-10.4,13.34-10.75,26.75-21.41,40.11-32.13,5.44-4.37,10.66-9.06,16.39-13a8.52,8.52,0,0,1,7.25-.47C568.93,260.51,570,263.4,571.77,265.78Z"/><path d="M545.81,403.8c-4-.43-6.54-2.76-6.81-6.67-.29-4.26,2.27-6.8,6.42-7.53q18.38-3.21,36.77-6.3c9.33-1.57,18.67-3,28-4.62,5.23-.88,8.79,1,9.7,5.2,1,4.76-1.42,8.18-6.76,9.05-21.94,3.57-43.89,7.05-65.84,10.57C546.79,403.57,546.31,403.69,545.81,403.8Z"/><path d="M211.72,396.65c-.09,4.58-3.89,7.5-9,6.69-20-3.17-40-6.42-60-9.63-1.8-.29-3.63-.42-5.43-.71-4.57-.72-7-3.93-6.35-8.47.58-4.31,4.13-6.87,8.64-6.12q32.94,5.5,65.87,11C209.43,390.14,211.42,392.66,211.72,396.65Z"/><path d="M335.29,256.4c-.19,4.13-2,7-6,7.69s-6.61-1.57-7.87-5.33Q313.73,235.59,306,212.4c-1.79-5.36-3.73-10.67-5.47-16-1.39-4.31.25-8.06,3.92-9.46a7.17,7.17,0,0,1,9.36,4.34C321,212.33,328,233.48,335,254.62A11.52,11.52,0,0,1,335.29,256.4Z"/><path d="M423.94,264.23c-7,.06-10.07-5.11-8.12-10.87,5.54-16.34,11.15-32.65,16.72-49,1.4-4.08,2.66-8.21,4.14-12.26,1.66-4.58,5.38-6.65,9.2-5.31s5.84,5.43,4.37,9.79c-7,20.74-14,41.47-21.39,62.08C428,261.21,425.06,263,423.94,264.23Z"/></svg>